<?xml version="1.0" encoding="UTF-8"?>
<svg id="Calque_1" data-name="Calque 1" xmlns="http://www.w3.org/2000/svg" viewBox="0 0 225.32 124.39">
  <defs>
    <style>
      .cls-1 {
        fill: #5d79a4;
      }
    </style>
  </defs>
  <circle class="cls-1" cx="144.3" cy="47.49" r="2.64"/>
  <path class="cls-1" d="M164.63,52.38c5.53,0,9.55,3.46,10.67,8.43v1.25l-17.07,4.28c.91,2.59,3.24,4.19,6.4,4.19,2.98,0,5.27-1.64,6.27-4.11h4.41c-1.12,4.97-5.14,8.43-10.67,8.43-6.61,0-11.02-4.58-11.02-11.02s4.41-11.45,11.02-11.45ZM169.91,59.08c-1.21-1.47-3.07-2.38-5.27-2.38-3.54,0-6.05,2.25-6.7,5.49l11.97-3.11Z"/>
  <path class="cls-1" d="M90.4,63.95c0-6.64,4.46-11.58,11.14-11.58,6.07,0,10.27,4.28,11.14,11.49l1.31,10.79h-4.28l-.31-2.45c-1.92,1.84-4.63,2.88-7.87,2.88-6.69,0-11.14-4.5-11.14-11.14ZM101.54,56.74c-4.11,0-6.9,3.02-6.9,7.12s2.8,6.86,6.9,6.86,6.86-2.75,6.86-6.86-2.75-7.12-6.86-7.12Z"/>
  <path class="cls-1" d="M121.83,63.88v10.8h-4.24v-10.71c0-6.64,4.02-11.58,10.71-11.58s9.88,4.98,10.71,11.58l1.31,10.71h-4.28l-1.35-10.8c-.53-4.06-2.27-7.12-6.38-7.12s-6.47,3.02-6.47,7.12Z"/>
  <path class="cls-1" d="M115.91,96.51c-8.95,0-16.81-3.58-21.85-7.65-4.74-3.82-8.12-8.33-10.05-13.4-1.68-4.41-2.12-8.92-2.47-12.53-.28-2.83-.62-6.36-1.57-6.68-.1-.03-.19-.04-.25-.03-1.18.12-3.12,2.62-5.69,13.83-.73,3.21-1.18,5.14-3.47,4.74-2.29-.42-2.01-2.44-1.59-5.52,1.3-9.48,1.01-14.81-.86-15.82-1.75.2-5.42,5.43-10.91,15.55-.77,1.43-1.44,2.67-1.96,3.54-.59,1-1.83,3.08-3.86,2.14-2.38-1.09-1.52-3.31,1.33-10.68,1.49-3.84,3.65-9.16,6.43-15.81l4.15,1.74c-.4.95-.78,1.87-1.14,2.74,2.44-2.81,4.83-4.26,7.22-3.56.41.12.68.27.88.37,2.16,1.16,3.26,3.46,3.74,6.36,1.36-2.34,3.06-3.89,5.27-4.12.7-.07,1.44.01,2.13.24,3.72,1.24,4.13,5.53,4.62,10.51.34,3.52.73,7.52,2.2,11.37,1.65,4.32,4.56,8.19,8.67,11.5,5.79,4.67,15.84,8.6,26.71,5.61,10.35-2.85,15.88-10.46,17.78-13.6l3.85,2.33c-2.18,3.6-8.53,12.34-20.44,15.62-3.03.83-6.01,1.2-8.88,1.2Z"/>
  <path class="cls-1" d="M147.38,75.42l-4.16-1.71c2.62-6.35,2.91-13.33.86-20.72l4.34-1.2c2.29,8.26,1.93,16.44-1.04,23.63Z"/>
  <g>
    <path class="cls-1" d="M79.57,76.9l-2.58,1.03-.17-.42,2.58-1.03.17.42Z"/>
    <path class="cls-1" d="M80.5,80.51c0,.15-.06.3-.15.43s-.23.24-.41.33l-1.17.56-.19-.41,1.11-.53c.18-.08.29-.19.35-.33.05-.13.04-.28-.03-.43-.07-.15-.18-.25-.32-.3-.14-.04-.3-.03-.47.06l-1.11.53-.19-.41,1.11-.53c.18-.08.29-.19.35-.33.05-.13.04-.28-.03-.43-.07-.15-.18-.25-.32-.3-.14-.04-.3-.03-.47.06l-1.11.53-.2-.41,1.99-.95.2.41-.23.11c.11.03.22.08.31.17.09.08.17.18.23.3.08.16.11.32.1.47s-.06.3-.16.43c.15,0,.29.05.42.14s.23.21.3.36c.07.16.11.31.1.47Z"/>
    <path class="cls-1" d="M80.59,81.58c.19,0,.37.03.53.12s.29.22.39.38c.09.15.13.3.14.44,0,.15-.01.28-.06.4l.28-.16.23.4-1.9,1.12-.23-.4.28-.17c-.13-.01-.26-.06-.38-.14-.13-.08-.23-.19-.32-.34-.1-.16-.14-.34-.14-.52,0-.19.06-.36.16-.53.1-.17.25-.31.44-.42.19-.11.38-.17.58-.18ZM81.22,83.03c.06-.11.1-.22.1-.34,0-.12-.03-.23-.09-.33-.06-.1-.14-.18-.24-.24s-.21-.09-.34-.08-.26.04-.39.12c-.13.08-.23.17-.3.28s-.1.23-.1.35.03.23.09.33c.06.1.14.18.24.24.1.06.22.08.35.08.13,0,.26-.04.39-.12.13-.08.23-.17.29-.28Z"/>
    <path class="cls-1" d="M83.1,84.77c.02.15,0,.28-.04.4l.26-.18.26.38-1.85,1.26c-.17.11-.34.18-.52.2-.18.02-.35-.01-.52-.09-.17-.08-.31-.22-.44-.4-.17-.25-.25-.49-.25-.73s.1-.44.28-.6l.25.37c-.08.09-.11.21-.1.34,0,.13.05.26.14.4.1.15.23.24.39.27.16.03.32-.01.5-.13l.3-.21c-.13,0-.26-.04-.39-.11-.13-.07-.25-.17-.34-.31-.11-.16-.17-.33-.17-.52,0-.19.03-.37.12-.54.09-.17.23-.32.41-.45.18-.12.37-.2.56-.22.19-.02.37,0,.54.09.17.08.31.2.41.35.1.14.15.29.17.43ZM82.69,85.3c.06-.12.08-.23.07-.35,0-.12-.05-.22-.11-.32-.07-.1-.15-.17-.26-.22-.1-.05-.22-.07-.35-.06s-.25.06-.38.14c-.12.09-.22.19-.28.3-.06.12-.08.23-.08.35,0,.12.04.23.11.32.07.1.15.17.26.22s.22.07.35.06c.13-.01.26-.06.38-.15.12-.09.22-.19.27-.3Z"/>
    <path class="cls-1" d="M84.2,86.18l-1.76,1.32-.27-.36,1.76-1.32.27.36ZM84.25,85.61c.01-.08.05-.14.12-.19.07-.05.14-.07.22-.06.08.01.14.05.19.12.05.06.07.13.05.21-.01.08-.05.14-.12.19-.07.05-.14.07-.22.06-.08-.01-.14-.05-.19-.11-.05-.07-.07-.14-.06-.22Z"/>
    <path class="cls-1" d="M85.49,87.89c.03.15.02.3-.04.45-.06.15-.17.29-.32.42l-1,.83-.29-.35.95-.78c.15-.13.24-.26.26-.4.02-.14-.03-.28-.13-.41-.11-.13-.24-.2-.38-.21-.14,0-.29.05-.45.17l-.95.78-.29-.35,1.7-1.4.29.35-.19.16c.12,0,.23.03.35.09.11.06.21.14.29.24.11.13.18.28.21.43Z"/>
    <path class="cls-1" d="M86.62,90.93l-1.15-1.23c-.12.13-.18.27-.18.43,0,.16.06.3.18.42.17.18.36.24.58.17l.34.36c-.19.09-.4.12-.61.08s-.41-.15-.59-.34c-.14-.15-.24-.32-.28-.51s-.04-.37.02-.56c.06-.19.17-.36.34-.51.17-.16.34-.26.53-.31.19-.05.37-.05.56.01.18.06.35.17.49.32.14.15.24.32.28.5s.04.36-.02.54c-.06.18-.16.34-.32.49-.06.06-.12.1-.17.14ZM86.58,90.34c.12-.12.18-.25.17-.41,0-.16-.07-.3-.19-.42-.11-.11-.24-.18-.39-.19s-.29.03-.43.13l.83.89Z"/>
    <path class="cls-1" d="M88.34,90.9c.12.03.24.1.35.21l-.33.34-.08-.08c-.13-.12-.26-.19-.39-.18-.13,0-.27.08-.43.24l-.81.83-.33-.32,1.53-1.58.33.32-.22.23c.12-.03.25-.03.37,0Z"/>
    <path class="cls-1" d="M87.51,92.98c0-.08.02-.15.08-.21.06-.06.12-.09.2-.1s.15.02.21.08c.06.05.09.12.09.2,0,.08-.02.15-.08.21-.06.06-.12.09-.2.1s-.15-.02-.21-.08c-.06-.06-.09-.12-.1-.2Z"/>
    <path class="cls-1" d="M90.41,92.79c.23-.09.47-.12.72-.08.25.04.47.14.67.3.23.18.4.4.49.66.09.26.1.52.01.8l-.43-.34c.03-.16.02-.31-.04-.44-.06-.14-.15-.26-.28-.36-.14-.11-.3-.18-.46-.21s-.33,0-.49.07c-.16.07-.3.19-.43.35-.13.16-.21.33-.24.5s-.02.34.05.49c.06.16.17.29.31.4.13.1.27.17.42.19.15.02.29,0,.44-.07l.43.34c-.25.15-.5.21-.77.18-.27-.03-.52-.13-.76-.32-.21-.16-.36-.36-.45-.58-.1-.23-.13-.47-.09-.72s.13-.48.3-.69c.17-.21.37-.37.6-.46Z"/>
    <path class="cls-1" d="M91.99,96.52c-.09-.17-.12-.36-.1-.55s.09-.39.21-.58c.12-.19.28-.32.46-.41.18-.09.37-.12.56-.11.19.02.38.09.55.2s.31.26.4.44c.09.17.13.36.11.56-.01.2-.08.39-.21.58-.13.19-.28.32-.46.41-.18.09-.37.12-.57.1-.2-.02-.38-.09-.56-.21-.17-.12-.3-.26-.39-.43ZM92.92,96.74c.12.01.23-.01.35-.07.12-.06.22-.15.31-.28.09-.13.14-.26.15-.39.01-.13,0-.24-.06-.34-.05-.1-.13-.19-.23-.25-.1-.07-.2-.1-.32-.11-.11,0-.23.02-.34.07-.11.06-.21.16-.3.29-.13.2-.18.38-.16.56.03.17.12.31.27.42.1.07.2.1.32.11Z"/>
    <path class="cls-1" d="M96.26,96.81c.08.13.12.28.12.44,0,.16-.06.33-.16.5l-.66,1.12-.39-.23.62-1.06c.1-.17.13-.33.1-.47-.03-.14-.12-.25-.27-.34-.15-.09-.29-.11-.43-.07-.14.04-.26.15-.36.32l-.62,1.06-.39-.23,1.11-1.9.39.23-.13.22c.11-.04.23-.05.35-.04.13.02.25.06.36.12.15.09.27.2.35.33Z"/>
    <path class="cls-1" d="M98.53,97.99c.09.13.14.27.14.43,0,.16-.04.33-.13.51l-.58,1.16-.4-.2.55-1.1c.09-.18.11-.33.07-.47s-.14-.25-.29-.32c-.15-.08-.3-.09-.43-.04-.14.05-.25.16-.34.34l-.55,1.1-.41-.2.99-1.97.41.2-.11.23c.11-.05.22-.07.35-.06.13,0,.25.04.37.1.16.08.28.18.37.31Z"/>
    <path class="cls-1" d="M100.79,100.31l-1.55-.66c-.06.17-.05.32.01.47.07.14.18.25.34.32.23.1.42.07.6-.08l.45.19c-.14.16-.32.27-.53.32s-.44.03-.67-.08c-.19-.08-.35-.2-.47-.35s-.18-.33-.2-.52.01-.4.1-.61c.09-.21.21-.37.36-.5.15-.12.32-.19.51-.21.19-.02.38.01.58.09.19.08.34.2.46.34.11.15.18.31.2.5s-.01.38-.1.57c-.03.08-.07.14-.1.2ZM100.51,99.79c.06-.16.06-.3,0-.44-.07-.14-.18-.24-.34-.31-.14-.06-.29-.07-.43-.02-.14.05-.26.15-.34.3l1.12.48Z"/>
    <path class="cls-1" d="M101.5,99.75c.14-.13.31-.21.49-.25.18-.03.38-.01.57.06.25.09.44.22.56.4s.17.39.15.63l-.46-.16c0-.12-.03-.22-.1-.31-.06-.09-.16-.15-.28-.2-.18-.06-.34-.05-.49.04-.15.09-.26.24-.34.47-.08.22-.09.42-.03.58.06.16.18.28.35.34.25.09.45.04.61-.15l.46.17c-.14.19-.31.32-.52.38s-.44.05-.68-.03c-.2-.07-.36-.18-.48-.32-.12-.14-.2-.31-.23-.5-.03-.19,0-.4.07-.61.08-.21.19-.39.33-.52Z"/>
    <path class="cls-1" d="M104.33,100.56l-.35,1.17c-.02.08-.02.14,0,.19.03.05.08.08.17.11l.27.08-.11.36-.34-.1c-.2-.06-.33-.15-.41-.27s-.08-.29-.02-.5l.35-1.17-.25-.07.11-.36.25.08.16-.53.44.13-.16.52.51.15-.11.36-.51-.15Z"/>
    <path class="cls-1" d="M106.95,102.19l-1.63-.41c-.03.17,0,.33.09.46.09.13.22.22.38.26.24.06.43,0,.58-.17l.48.12c-.11.18-.27.31-.47.4-.2.08-.43.09-.68.03-.2-.05-.38-.14-.51-.27s-.23-.29-.28-.48c-.05-.19-.05-.39,0-.62.05-.22.15-.4.28-.55s.29-.24.47-.29c.18-.05.38-.05.59,0,.2.05.37.14.51.27.14.13.23.28.28.46.05.18.05.38,0,.58-.02.08-.04.15-.07.21ZM106.59,101.72c.04-.16.01-.31-.08-.44s-.22-.21-.39-.25c-.15-.04-.29-.02-.43.05-.13.07-.23.19-.29.35l1.18.29Z"/>
    <path class="cls-1" d="M108.38,101.22c.12-.04.26-.05.4-.02l-.09.46-.11-.02c-.18-.03-.32-.02-.42.06-.11.07-.18.22-.23.44l-.22,1.14-.45-.09.42-2.16.45.09-.06.31c.09-.1.19-.17.31-.21Z"/>
    <path class="cls-1" d="M108.81,103.42c-.05-.06-.06-.14-.05-.22.01-.08.05-.15.12-.19.06-.05.14-.06.22-.05.08.01.14.05.19.12.05.06.06.14.05.22-.01.08-.05.15-.12.19-.06.05-.14.06-.21.05-.08-.01-.15-.05-.19-.12Z"/>
    <path class="cls-1" d="M113.54,101.24l-1.29,2.67-.53-.05-.79-2.86.49.04.61,2.38,1.03-2.23.48.04Z"/>
    <path class="cls-1" d="M114.3,101.83l-.09,2.2-.46-.02.09-2.2.46.02ZM113.89,101.44c-.05-.06-.08-.13-.08-.21,0-.08.04-.15.09-.2.06-.05.13-.08.21-.08.08,0,.15.03.2.09s.08.13.08.21c0,.08-.03.15-.09.2s-.13.08-.21.08c-.08,0-.15-.04-.2-.09Z"/>
    <path class="cls-1" d="M115.7,103.65l.65-1.79h.48s-.88,2.2-.88,2.2h-.54s-.8-2.23-.8-2.23h.49s.59,1.81.59,1.81Z"/>
    <path class="cls-1" d="M117.85,101.87c.11-.07.24-.1.39-.11l.02.47h-.12c-.18.01-.31.06-.4.16s-.13.25-.12.48l.05,1.16-.46.02-.1-2.2.46-.02v.32c.08-.11.16-.21.27-.27Z"/>
    <path class="cls-1" d="M120.76,102.85l-1.68.16c.03.17.11.31.24.4.13.09.28.13.45.12.24-.02.41-.14.49-.36l.49-.05c-.05.21-.15.38-.31.53-.16.15-.37.23-.63.25-.21.02-.4,0-.58-.09-.17-.08-.32-.2-.43-.36s-.18-.36-.2-.58c-.02-.23,0-.43.08-.61.08-.18.19-.32.35-.43s.34-.17.56-.19c.21-.02.4,0,.57.08.17.08.31.19.41.34.11.16.17.34.19.55,0,.08,0,.16,0,.22ZM120.27,102.52c-.02-.17-.09-.29-.22-.38-.13-.09-.28-.13-.45-.11-.16.01-.29.08-.39.19-.1.11-.16.25-.16.42l1.21-.12Z"/>
    <path class="cls-1" d="M121.35,103.64c-.06-.05-.1-.11-.11-.2-.01-.08,0-.15.05-.22.05-.06.11-.1.19-.11.08-.01.15,0,.21.06s.1.11.11.2c.01.08,0,.15-.05.22-.05.06-.11.1-.19.11-.08.01-.15,0-.22-.05Z"/>
  </g>
</svg>