<svg version="1.2" xmlns="http://www.w3.org/2000/svg" viewBox="0 0 76 90" width="76" height="90">
	<title>noun-empty-cart-7920351</title>
	<style>
		.s0 { fill: #000000 } 
	</style>
	<path class="s0" d="m75.75 51.27c-1.16 6.16-5.93 11.47-7.06 12.65l0.44 0.51c0.1 0.14 0.1 0.32 0 0.46l-10.32 15.11 0.25 9.57c0 0.21-0.16 0.38-0.37 0.39-0.21 0-0.37-0.17-0.37-0.37l-0.25-9.69q-0.01-0.12 0.07-0.22l10.2-15-6.92-8.13-16.79 12q-1.37 4.27-3.79 4.7-0.25 0.02-0.5 0c-2.23 0-4.22-2.38-4.64-2.92l-18.55-4.62-6.42 9.42 13.73 8.6q0.17 0.11 0.17 0.32l-0.05 5.2h31q0.17-0.03 0.31 0.08 0.13 0.12 0.13 0.29 0 0.18-0.13 0.29-0.14 0.12-0.31 0.09h-31.38c-0.21 0-0.38-0.17-0.38-0.38l0.06-5.37-13.88-8.69q-0.14-0.08-0.17-0.24-0.04-0.18 0.07-0.32l0.13-0.2h-0.05q-3.85-2.92-7.26-6.34c-2-2.08-1.06-14.42 0-24.41 0.31-2.76-0.16-5.55-1.35-8.05q-0.46-0.97-0.88-1.89c-1.21-2.69 2.2-6.53 2.35-6.69 0.1-0.1 0.25-0.13 0.38-0.08l-2.7-12.64c-0.29-1.35 0.47-2.69 1.76-3.15l32.11-11.39c1.3-0.46 2.73 0.12 3.36 1.34l7.5 14.76 1.41 2.74c0.09 0.19 0.02 0.41-0.16 0.51q-0.08 0.01-0.17 0c-0.14 0-0.28-0.09-0.34-0.21l-1.41-2.7-7.5-14.76c-0.45-0.9-1.49-1.33-2.44-1l-32.11 11.4c-0.93 0.34-1.48 1.3-1.28 2.28l4.56 21.34 19.42-6.86 18.32-6.5c0.19-0.07 0.41 0.03 0.48 0.23 0.07 0.19-0.04 0.41-0.23 0.48l-2.66 0.94-10.92 3.85-1.53 0.54c1.59 0.49 2.63 2 2.52 3.66l7.93 5.33c0.41 0.26 0.68 0.68 0.77 1.16 0.14 0.72-0.17 1.46-0.79 1.87-0.61 0.41-1.41 0.41-2.02 0l-6.56-4.4q-0.13-0.09-0.16-0.25-0.03-0.15 0.06-0.28c0.12-0.17 0.35-0.21 0.52-0.1l6.56 4.47c0.49 0.33 1.16 0.2 1.5-0.29 0.15-0.24 0.21-0.53 0.16-0.81-0.06-0.28-0.22-0.53-0.46-0.69l-7.66-5.21c-0.33 1.11-1.16 2-2.25 2.39q-0.59 0.2-1.22 0.21-0.84 0.01-1.59-0.34c-0.96-0.44-1.67-1.28-1.95-2.3-0.27-1.02-0.08-2.1 0.53-2.96l-20.46 7.26 0.63 1.74c0.25 0.71 0.77 1.28 1.44 1.6 0.68 0.33 1.45 0.37 2.16 0.12l4-1.42 10.13-3.58c0.19-0.07 0.41 0.03 0.47 0.22 0.07 0.19-0.03 0.41-0.22 0.48l-10.13 3.58-4 1.42q-0.58 0.2-1.19 0.2c-1.52 0.02-2.89-0.92-3.41-2.35l-0.75-2.12q-0.06-0.15 0.01-0.28 0.07-0.14 0.22-0.19l1.58-0.56-1.71-8.12c-0.38 0.44-3.12 3.73-2.18 5.84q0.41 0.91 0.88 1.86c1.26 2.64 1.76 5.58 1.45 8.49-1.5 13.45-1.56 22.35-0.23 23.81q3.36 3.37 7.16 6.25l5.32-7.81-4.39-2.89c-1.38 1.1-3.06 1.75-4.81 1.86h-0.12c-0.21-0.01-0.37-0.18-0.37-0.39 0.02-0.2 0.19-0.35 0.39-0.36 1.67-0.08 3.26-0.7 4.55-1.77l-1-19.77q-0.01-0.16 0.1-0.27 0.1-0.11 0.26-0.12c0.2-0.01 0.37 0.15 0.39 0.35l1 19.78 4.48 2.94 0.49-0.73c0.09-0.13 0.25-0.19 0.4-0.15l18.46 4.67v-4.51c-3.65-0.3-6.54-3.23-6.79-6.88-1.33-8 5.42-14.05 6.69-15.11q-0.24-0.88-0.3-1.79-0.01-0.16 0.1-0.27 0.1-0.11 0.26-0.12 0.15-0.01 0.27 0.09 0.11 0.1 0.12 0.26v0.27c0.49 0.52 1.17 0.83 1.89 0.85q1.75-0.01 3.69-2.32c0.09-0.13 0.26-0.17 0.41-0.12 0.15 0.05 0.25 0.19 0.25 0.35 0 0.17 0.2 4.25 7.4 4.11q0.18 0 0.3 0.14 0.11 0.15 0.07 0.33c-0.36 1.29-1 4.84 0.45 5.79 0.12 0.08 0.19 0.23 0.17 0.38-0.13 0.63-0.3 2.51 0.5 2.94 1.44 0.55 2.17 2.15 1.64 3.6-0.79 2.15-4.7 2.42-5.54 2.42l-1.78 2c6.06 1.9 10.81-8.8 10.86-8.91q0.05-0.12 0.16-0.18 2.22-1.24 1.54-4.56c-1-5-6.49-11.23-8.68-11.44-2.61-0.26-3.13-0.82-4.05-2.08q-0.5-0.69-1.06-1.32c-0.2-0.22-0.39-0.34-0.53-0.31-0.41 0-0.93 0.76-1.49 1.54h0.01q-0.71 1.03-1.56 1.94c-0.15 0.12-0.37 0.11-0.51-0.03-0.14-0.14-0.15-0.36-0.02-0.51q0.82-0.85 1.48-1.83c0.71-1 1.28-1.82 2-1.86 0.45-0.01 0.89 0.19 1.17 0.55 0.49 0.54 0.83 1 1.11 1.38 0.81 1.1 1.14 1.55 3.54 1.78 2.64 0.25 8.29 7 9.32 12 0.52 2.48-0.11 4.31-1.8 5.3-0.57 1.28-5.36 11.36-11.81 9.19l-0.34 4.93 16.53-11.83c0.16-0.11 0.38-0.08 0.51 0.07l0.42 0.49 3.54-5.11c-4.2-6.12-15-21.5-16.72-22.56-2.15-1.29-2.15-9.12-1.38-11.48q0.34-1.08 1-1c1.58 0.14 6.92 3.29 7.42 9.24 1.82 1.6 20.96 19.12 19.67 25.87zm-38.04-29.45c0.86 0.39 1.87 0.03 2.29-0.82 0.21-0.42 0.23-0.9 0.08-1.34l-5.08-14.36c-0.33-0.91-1.33-1.39-2.25-1.07-0.2 0.07-0.3 0.29-0.23 0.48 0.07 0.2 0.28 0.3 0.48 0.23 0.25-0.09 0.53-0.08 0.77 0.03 0.24 0.12 0.43 0.33 0.52 0.58l5.12 14.35c0.15 0.39 0.04 0.83-0.27 1.11-0.32 0.28-0.77 0.33-1.14 0.13-0.24-0.11-0.43-0.32-0.52-0.57l-5.05-14.34c-0.07-0.17-0.25-0.27-0.43-0.23-0.2 0.07-0.3 0.28-0.23 0.48l5.03 14.34c0.16 0.44 0.48 0.8 0.9 1zm-6.71 2.36q0.35 0.18 0.75 0.18 0.3-0.01 0.59-0.1c0.45-0.15 0.81-0.47 1.02-0.9 0.21-0.42 0.23-0.91 0.08-1.36l-5.08-14.33c-0.16-0.44-0.48-0.8-0.9-1-0.42-0.2-0.9-0.23-1.34-0.07-0.2 0.07-0.3 0.28-0.23 0.47 0.07 0.2 0.28 0.3 0.48 0.23q0.39-0.13 0.77 0.04 0.37 0.19 0.51 0.58l5.07 14.34h0.01c0.09 0.25 0.08 0.53-0.04 0.77q-0.18 0.38-0.57 0.52-0.4 0.14-0.78-0.03c-0.24-0.12-0.42-0.32-0.51-0.58l-5.08-14.35c-0.08-0.19-0.29-0.29-0.48-0.23-0.19 0.07-0.29 0.29-0.22 0.48l5.08 14.35c0.14 0.44 0.46 0.79 0.87 0.99zm-5.92 2.54q0.29 0 0.58-0.1c0.44-0.16 0.8-0.48 1-0.9 0.2-0.42 0.22-0.9 0.07-1.34l-5.04-14.38c-0.36-0.88-1.36-1.32-2.25-1-0.2 0.07-0.3 0.28-0.23 0.48 0.07 0.2 0.28 0.3 0.48 0.23q0.39-0.14 0.77 0.04 0.37 0.18 0.52 0.57l5.08 14.35c0.18 0.53-0.09 1.1-0.62 1.28-0.52 0.19-1.1-0.09-1.28-0.61l-5.08-14.34c-0.08-0.2-0.29-0.3-0.48-0.23q-0.15 0.05-0.22 0.19-0.06 0.14-0.01 0.29l5.08 14.34c0.26 0.69 0.92 1.14 1.66 1.13zm-6.68 2.36q0.3 0.01 0.6-0.08c0.91-0.32 1.39-1.32 1.07-2.24l-5.07-14.36c-0.15-0.44-0.48-0.8-0.9-1-0.42-0.2-0.91-0.24-1.35-0.08-0.19 0.08-0.29 0.29-0.22 0.48q0.06 0.14 0.19 0.2 0.14 0.05 0.28 0 0.38-0.15 0.77 0c0.24 0.11 0.43 0.32 0.52 0.58l5.09 14.42c0.09 0.25 0.08 0.53-0.04 0.77-0.11 0.25-0.32 0.43-0.57 0.52q-0.4 0.13-0.77-0.05c-0.24-0.11-0.43-0.32-0.52-0.57l-5.08-14.35q-0.05-0.14-0.19-0.22-0.14-0.06-0.29-0.01c-0.2 0.07-0.3 0.29-0.23 0.48l5.08 14.34c0.25 0.7 0.92 1.17 1.66 1.17zm-6.34 1.56c-0.52 0.17-1.08-0.12-1.25-0.64l-5.08-14.32c-0.07-0.19-0.29-0.29-0.48-0.23-0.2 0.07-0.3 0.29-0.23 0.48l5.08 14.35c0.25 0.71 0.92 1.17 1.66 1.17q0.3 0 0.58-0.1c0.44-0.15 0.8-0.48 1-0.9 0.21-0.42 0.23-0.91 0.07-1.35l-5.08-14.34c-0.15-0.44-0.48-0.8-0.9-1-0.42-0.2-0.9-0.23-1.34-0.07q-0.15 0.05-0.22 0.19-0.06 0.14-0.01 0.29c0.07 0.19 0.28 0.3 0.48 0.23q0.38-0.15 0.77 0c0.24 0.11 0.43 0.32 0.52 0.57l5.08 14.34c0.11 0.26 0.1 0.55-0.02 0.8-0.12 0.25-0.33 0.45-0.6 0.53zm14.62-1.37c-0.76 0.23-1.4 0.75-1.76 1.46-0.36 0.7-0.42 1.52-0.15 2.27 0.26 0.75 0.82 1.36 1.55 1.68 0.72 0.32 1.55 0.32 2.28 0.02 1.4-0.6 2.1-2.18 1.6-3.62-0.51-1.44-2.05-2.23-3.52-1.81zm0.32 0.93c0.99-0.35 2.08 0.17 2.43 1.16 0.35 1-0.17 2.08-1.16 2.43q-0.31 0.11-0.63 0.11c-0.81 0-1.53-0.5-1.8-1.27-0.35-0.98 0.17-2.07 1.16-2.43zm18.71-2.28c0.07 0.19-0.03 0.41-0.23 0.48l-7.43 2.6-3.58 1.27h-0.12c-0.18-0.01-0.33-0.14-0.36-0.32-0.03-0.17 0.07-0.35 0.23-0.41l3.58-1.27 7.43-2.63v-0.01q0.16-0.04 0.3 0.04 0.14 0.09 0.18 0.25zm-18.46 3c-0.29 0.09-0.52 0.31-0.65 0.58-0.13 0.28-0.15 0.6-0.05 0.88 0.22 0.6 0.87 0.91 1.47 0.7 0.29-0.09 0.53-0.31 0.66-0.58 0.13-0.28 0.14-0.6 0.04-0.89-0.1-0.28-0.31-0.52-0.59-0.66-0.29-0.14-0.62-0.16-0.92-0.03zm16.72 37.35l0.42-6.19q0.02-0.11 0.09-0.2l2.26-2.51v0.01q0.12-0.13 0.28-0.13c1.2 0 4.43-0.35 5-1.92 0.36-1.08-0.19-2.25-1.26-2.65-1.26-0.68-1.06-2.78-1-3.52-1.54-1.32-1-4.71-0.68-6q-4.22-0.01-6.26-2v-0.01c-0.6-0.56-1.03-1.27-1.27-2.06-0.94 1.16-2.32 1.89-3.81 2-0.59 0-1.18-0.18-1.68-0.5 0.06 0.29 0.12 0.49 0.12 0.49 0.05 0.15 0.01 0.31-0.12 0.41l-0.15 0.11v0.01c0.33 0.48 0.82 0.83 1.38 1 0.72 0.1 1.44-0.1 2-0.55 0.17-0.13 0.4-0.08 0.52 0.09 0.12 0.16 0.08 0.4-0.09 0.51-0.57 0.45-1.27 0.71-2 0.74q-0.31 0.01-0.61-0.07c-0.71-0.2-1.33-0.63-1.77-1.24-1.93 1.75-7 7.11-5.89 13.93 0.21 2.09 1.3 4 3 5.22 2.82 1.82 6.56 0.85 6.6 0.84q0.15-0.03 0.29 0.04 0.13 0.08 0.17 0.22 0.04 0.15-0.03 0.29-0.08 0.13-0.23 0.18-1.28 0.31-2.59 0.3h-0.45v4.8c0.39 0.5 2.44 2.92 4.42 2.6 1.37-0.2 2.49-1.63 3.3-4.24zm11.44-42.44q-0.1-0.1-0.12-0.25c-0.4-5.93-5.7-8.61-6.75-8.7-0.19 0.15-0.66 1.68-0.64 4.65 0 3.29 0.62 5.95 1.48 6.47 2.23 1.33 15.79 21.07 17 22.88 1.77 0.4 3.63 0.16 5.25-0.66 0.19-0.08 0.41-0.01 0.5 0.18q0.07 0.14 0.02 0.29-0.05 0.15-0.19 0.21c-1.21 0.61-2.55 0.93-3.91 0.93q-0.88 0-1.75-0.2l-3.62 5.27 5.48 6.45c1.18-1.27 5.72-6.43 6.81-12.22 1.23-6.52-19.35-25.12-19.56-25.3zm-22 23.49v0.01q0.08-0.71 0.44-1.32c0.59-1 1.45-1.54 2-1.2 0.56 0.32 0.57 1.32 0 2.35v-0.01c-0.29 0.59-0.78 1.04-1.38 1.28q-0.13 0.01-0.26 0-0.21 0-0.39-0.1c-0.32-0.23-0.49-0.62-0.42-1zm0.8 0.41c0.08 0 0.57-0.18 1-0.93 0.43-0.73 0.37-1.27 0.29-1.32-0.13 0-0.58 0.23-1 0.92-0.42 0.69-0.38 1.27-0.3 1.33zm8.49 2q-0.1 0.69-0.45 1.27c-0.29 0.68-0.91 1.17-1.63 1.3q-0.22 0-0.4-0.11c-0.34-0.23-0.5-0.64-0.41-1.05q0.08-0.69 0.44-1.3c0.28-0.57 0.77-1.02 1.37-1.26q0.34-0.09 0.65 0.07c0.34 0.23 0.51 0.64 0.42 1.04zm-0.79-0.41c-0.13 0-0.57 0.24-1 0.93-0.43 0.7-0.38 1.27-0.3 1.33 0.08 0.06 0.57-0.19 1-0.93 0.43-0.73 0.39-1.3 0.29-1.36zm-4-1.54l-3 2q-0.26 0.17-0.57 0.19c-0.65 0.04-1.23 0.42-1.53 1l-0.19 0.35c-0.09 0.17-0.05 0.37 0.1 0.48l1.42 1.12q0.1 0.08 0.23 0.08 0.18 0 0.3-0.15 0.1-0.12 0.08-0.27-0.03-0.16-0.15-0.25l-1.17-0.93v-0.07c0.18-0.34 0.53-0.55 0.91-0.57q0.52-0.03 0.95-0.33l3-2c0.17-0.11 0.22-0.35 0.1-0.52-0.12-0.17-0.35-0.21-0.52-0.1zm-1.57 6.31c-0.68 0.09-1.3 0.45-1.71 1-0.09 0.18-0.04 0.38 0.12 0.49 0.16 0.11 0.37 0.09 0.5-0.06 0.27-0.37 0.68-0.63 1.13-0.7 0.52 0.03 0.98 0.3 1.27 0.72q0.12 0.14 0.29 0.14 0.14 0 0.24-0.09 0.11-0.11 0.11-0.26 0-0.16-0.11-0.27c-0.41-0.6-1.08-0.97-1.81-1.01zm9.12-6v0.01c0.07 0.13 0.2 0.21 0.34 0.21q0.08 0.01 0.16 0 0.14-0.07 0.2-0.22 0.05-0.15-0.03-0.29c-0.42-1.09-1.27-1.94-2.36-2.36-0.64-0.2-1.33-0.13-1.92 0.19q-0.13 0.08-0.17 0.23-0.04 0.15 0.04 0.28 0.08 0.13 0.23 0.18 0.15 0.03 0.28-0.04c0.42-0.22 0.9-0.26 1.34-0.12 0.88 0.35 1.58 1.05 1.92 1.93zm3.29 8.54q0.08 0.03 0.17 0c0.6-0.27 1.04-0.79 1.2-1.43 0.11-0.78-0.09-1.57-0.56-2.2-0.13-0.16-0.36-0.19-0.53-0.07-0.16 0.13-0.19 0.37-0.06 0.53 0.33 0.44 0.49 0.99 0.45 1.54-0.12 0.42-0.42 0.76-0.82 0.93-0.18 0.1-0.25 0.33-0.15 0.51q0.11 0.19 0.33 0.18z"/>
</svg>