<svg version="1.2" xmlns="http://www.w3.org/2000/svg" viewBox="0 0 126 61" width="126" height="61">
	<title>logo VF CMJN_principal baseline CREME</title>
	<style>
		.s0 { fill: #fbebd6 } 
	</style>
	<g>
		<path fill-rule="evenodd" class="s0" d="m94.3 6.1c-1.5 0-2.6-1.2-2.6-2.6 0-1.5 1.1-2.6 2.6-2.6 1.5 0 2.6 1.1 2.6 2.6 0 1.4-1.1 2.6-2.6 2.6z"/>
		<path class="s0" d="m114.6 8.4c5.6 0 9.6 3.4 10.7 8.4v1.3l-17.1 4.2c0.9 2.6 3.3 4.2 6.4 4.2 3 0 5.3-1.6 6.3-4.1h4.4c-1.1 5-5.1 8.4-10.7 8.4-6.6 0-11-4.5-11-11 0-6.4 4.4-11.4 11-11.4zm5.3 6.7c-1.2-1.5-3-2.4-5.2-2.4-3.6 0-6.1 2.2-6.7 5.5z"/>
		<path class="s0" d="m40.4 20c0-6.7 4.5-11.6 11.1-11.6 6.1 0 10.3 4.3 11.2 11.5l1.3 10.8h-4.3l-0.3-2.5c-1.9 1.8-4.6 2.9-7.9 2.9-6.7 0-11.1-4.5-11.1-11.2zm11.1-7.2c-4.1 0-6.9 3-6.9 7.1 0 4.1 2.8 6.9 6.9 6.9 4.1 0 6.9-2.7 6.9-6.9 0-4.1-2.8-7.1-6.9-7.1z"/>
		<path class="s0" d="m71.8 19.9v10.8h-4.2v-10.7c0-6.7 4-11.6 10.7-11.6 6.7 0 9.9 5 10.7 11.6l1.3 10.7h-4.3l-1.3-10.8c-0.5-4.1-2.3-7.1-6.4-7.1-4.1 0-6.5 3-6.5 7.1z"/>
		<path class="s0" d="m65.9 52.5c-8.9 0-16.8-3.6-21.8-7.6-4.8-3.9-8.2-8.4-10.1-13.4-1.7-4.5-2.1-9-2.5-12.6-0.2-2.8-0.6-6.3-1.5-6.7q-0.2 0-0.3 0c-1.2 0.1-3.1 2.6-5.7 13.8-0.7 3.3-1.1 5.2-3.4 4.8-2.3-0.4-2-2.5-1.6-5.5 1.3-9.5 1-14.8-0.9-15.9-1.7 0.2-5.4 5.5-10.9 15.6-0.8 1.4-1.4 2.7-2 3.5-0.5 1-1.8 3.1-3.8 2.2-2.4-1.1-1.5-3.3 1.3-10.7 1.5-3.8 3.7-9.2 6.4-15.8l4.2 1.7q-0.6 1.5-1.1 2.8c2.4-2.8 4.8-4.3 7.2-3.6 0.4 0.1 0.7 0.3 0.9 0.4 2.1 1.1 3.2 3.4 3.7 6.3 1.4-2.3 3.1-3.9 5.3-4.1 0.7-0.1 1.4 0 2.1 0.3 3.7 1.2 4.1 5.5 4.6 10.5 0.4 3.5 0.7 7.5 2.2 11.3 1.7 4.4 4.6 8.2 8.7 11.5 5.8 4.7 15.8 8.6 26.7 5.7 10.3-2.9 15.9-10.5 17.8-13.6l3.8 2.3c-2.2 3.6-8.5 12.3-20.4 15.6-3.1 0.8-6 1.2-8.9 1.2z"/>
		<path class="s0" d="m97.4 31.4l-4.2-1.7c2.6-6.3 2.9-13.3 0.9-20.7l4.3-1.2c2.3 8.3 2 16.4-1 23.6z"/>
	</g>
	<g>
		<path class="s0" d="m26.9 33.3q0-0.3 0.1-0.5 0.1-0.2 0.4-0.3l0.2 0.5q-0.2 0.1-0.3 0.2-0.1 0.2 0 0.4 0.1 0.3 0.3 0.3 0.2 0.1 0.3 0.1 0.2-0.1 0.2-0.2 0.1-0.1 0.1-0.3 0-0.1 0-0.3-0.1-0.3-0.1-0.5 0-0.2 0.1-0.4 0.2-0.2 0.4-0.3 0.2-0.1 0.5 0 0.2 0 0.4 0.2 0.1 0.2 0.2 0.5 0.2 0.4 0.1 0.7-0.1 0.3-0.4 0.5l-0.2-0.5q0.1-0.1 0.2-0.3 0-0.1-0.1-0.3 0-0.2-0.2-0.3-0.1-0.1-0.3 0-0.1 0-0.2 0.1 0 0.1 0 0.3 0 0.1 0 0.3 0 0.3 0 0.5 0 0.2-0.1 0.4-0.1 0.2-0.4 0.3-0.2 0.1-0.4 0-0.3 0-0.5-0.2-0.1-0.1-0.3-0.4-0.1-0.3-0.1-0.6z"/>
		<path class="s0" d="m29.9 34.8l-2.1 1-0.2-0.5 2.2-0.9zm0.1-0.6q0.1-0.1 0.2-0.2 0.1 0 0.2 0 0.1 0.1 0.2 0.2 0 0.1 0 0.2-0.1 0.1-0.2 0.2-0.1 0.1-0.2 0-0.1-0.1-0.2-0.2 0-0.1 0-0.2z"/>
		<path class="s0" d="m31.6 38.3q0 0.3-0.1 0.5-0.1 0.2-0.4 0.3l-1.2 0.7-0.3-0.4 1.2-0.6q0.3-0.2 0.3-0.4 0.1-0.2 0-0.5-0.1-0.2-0.4-0.3-0.2 0-0.5 0.1l-1.1 0.6-0.2-0.4 1.1-0.6q0.3-0.1 0.4-0.4 0-0.2-0.1-0.4-0.1-0.2-0.3-0.3-0.3-0.1-0.5 0.1l-1.2 0.6-0.2-0.4 2-1.1 0.3 0.4-0.3 0.1q0.2 0.1 0.4 0.2 0.1 0.1 0.2 0.3 0.2 0.2 0.2 0.5-0.1 0.2-0.2 0.4 0.3 0 0.5 0.2 0.2 0.1 0.3 0.3 0.1 0.3 0.1 0.5z"/>
		<path class="s0" d="m32.6 39.9q0.2 0.1 0.4 0.4 0.1 0.2 0.2 0.5 0 0.3-0.2 0.6-0.1 0.2-0.4 0.4-0.3 0.2-0.6 0.2-0.3 0.1-0.6 0-0.2-0.2-0.4-0.4-0.2-0.3-0.2-0.5 0-0.2 0.1-0.4l-1.2 0.8-0.3-0.4 2.9-1.9 0.2 0.4-0.3 0.2q0.2 0 0.4 0.1zm0 1.2q0.1-0.2 0.1-0.4 0-0.1-0.1-0.3-0.1-0.1-0.3-0.2-0.1-0.1-0.4-0.1-0.2 0-0.4 0.2-0.1 0.1-0.2 0.3-0.1 0.1-0.1 0.3 0 0.2 0.1 0.4 0.1 0.1 0.3 0.2 0.1 0.1 0.3 0.1 0.2 0 0.4-0.2 0.2-0.1 0.3-0.3z"/>
		<path class="s0" d="m34.8 41.5l-2.6 1.8-0.2-0.4 2.5-1.8z"/>
		<path class="s0" d="m34.8 42.8l-1.8 1.4-0.3-0.3 1.8-1.5zm0-0.6q0-0.1 0.1-0.2 0.1 0 0.3 0 0.1 0 0.2 0.1 0.1 0.1 0 0.2 0 0.1-0.1 0.2-0.1 0.1-0.2 0.1-0.1 0-0.2-0.1-0.1-0.1-0.1-0.3z"/>
		<path class="s0" d="m35.5 44.3l-0.3-0.3-1.5 1.2-0.3-0.4 1.5-1.2-0.2-0.2 0.3-0.3 0.2 0.2h0.1q0.3-0.3 0.6-0.3 0.3 0.1 0.6 0.4l-0.3 0.3q-0.2-0.2-0.3-0.2-0.1 0-0.3 0.1l-0.1 0.1 0.3 0.3z"/>
		<path class="s0" d="m36.4 44.7l-1.8 1.6-0.3-0.4 1.8-1.5zm0-0.6q0-0.2 0.1-0.2 0.1-0.1 0.2-0.1 0.1 0 0.2 0.1 0.1 0.1 0.1 0.2 0 0.1-0.1 0.2-0.1 0.1-0.3 0.1-0.1 0-0.2-0.1 0-0.1 0-0.2z"/>
		<path class="s0" d="m37.3 47.6l-1.2-1.2q-0.2 0.2-0.2 0.4 0 0.3 0.2 0.5 0.2 0.2 0.6 0.1l0.3 0.4q-0.3 0.2-0.6 0.1-0.3-0.1-0.6-0.3-0.3-0.3-0.3-0.6-0.1-0.3 0-0.6 0.1-0.3 0.3-0.5 0.3-0.3 0.6-0.3 0.3-0.1 0.6 0 0.3 0.1 0.5 0.3 0.2 0.2 0.3 0.5 0.1 0.3 0 0.6-0.1 0.3-0.4 0.5 0 0.1-0.1 0.1zm-0.1-0.6q0.2-0.1 0.2-0.4 0-0.2-0.2-0.4-0.2-0.2-0.4-0.2-0.3-0.1-0.5 0.1z"/>
		<path class="s0" d="m40.3 47.5l-2.1 2.3-0.4-0.3 2.1-2.3z"/>
		<path class="s0" d="m40.7 48.1l0.4 0.3-1 0.5-0.3-0.2z"/>
		<path class="s0" d="m41.8 51.5l-1.4-1.1q-0.1 0.2-0.1 0.5 0.1 0.2 0.3 0.4 0.3 0.2 0.6 0.1l0.4 0.3q-0.2 0.2-0.6 0.2-0.3 0-0.7-0.3-0.2-0.2-0.3-0.5-0.1-0.2-0.1-0.5 0-0.3 0.3-0.6 0.2-0.3 0.5-0.4 0.2-0.2 0.5-0.1 0.3 0 0.6 0.2 0.3 0.2 0.4 0.5 0.1 0.3 0.1 0.6-0.1 0.2-0.3 0.5-0.1 0.1-0.2 0.2zm-0.1-0.6q0.2-0.2 0.1-0.4 0-0.3-0.3-0.5-0.2-0.1-0.4-0.1-0.2 0-0.4 0.2zm0.8-1.3l-1-0.2 0.2-0.3 1 0.1z"/>
		<path class="s0" d="m42.7 52.8l1.6-1.2 0.4 0.2-2 1.5-0.4-0.3 0.5-2.5 0.5 0.3z"/>
		<path class="s0" d="m46.2 54.2l-1.5-0.9q-0.2 0.3-0.1 0.5 0.1 0.3 0.3 0.4 0.3 0.2 0.6 0l0.5 0.3q-0.3 0.2-0.6 0.2-0.3 0.1-0.7-0.2-0.3-0.1-0.4-0.4-0.2-0.2-0.2-0.6 0-0.3 0.2-0.6 0.2-0.3 0.5-0.5 0.2-0.1 0.5-0.1 0.3 0 0.6 0.2 0.3 0.1 0.4 0.4 0.2 0.2 0.2 0.5 0 0.3-0.2 0.6-0.1 0.1-0.1 0.2zm-0.2-0.6q0.1-0.2 0-0.4-0.1-0.3-0.3-0.4-0.2-0.1-0.5-0.1-0.2 0.1-0.4 0.3zm0.7-1.5h-1.1l0.2-0.3h1.1z"/>
		<path class="s0" d="m48.7 54.1q0.2 0.2 0.2 0.4 0 0.3-0.1 0.6l-0.7 1.2-0.4-0.2 0.6-1.2q0.1-0.2 0-0.5 0-0.2-0.3-0.3-0.2-0.1-0.4 0-0.2 0-0.4 0.3l-0.5 1.2-0.5-0.2 1.1-2.1 0.4 0.2-0.1 0.2q0.1 0 0.3 0 0.2 0 0.4 0.1 0.3 0.1 0.4 0.3z"/>
		<path class="s0" d="m51.1 56.5l-1.6-0.7q-0.1 0.3 0 0.5 0.1 0.2 0.4 0.3 0.3 0.2 0.6 0l0.5 0.2q-0.2 0.2-0.5 0.3-0.4 0.1-0.8-0.1-0.3-0.1-0.4-0.3-0.2-0.3-0.3-0.6 0-0.3 0.1-0.6 0.2-0.4 0.4-0.5 0.2-0.2 0.5-0.3 0.3 0 0.7 0.1 0.3 0.1 0.4 0.4 0.2 0.2 0.3 0.5 0 0.3-0.1 0.6-0.1 0.1-0.1 0.2zm-0.3-0.5q0.1-0.3 0-0.5-0.2-0.2-0.4-0.3-0.2-0.1-0.5 0-0.2 0-0.3 0.3z"/>
		<path class="s0" d="m55.2 56.5q0.2 0.2 0.2 0.4 0.1 0.3 0 0.6l-0.4 1.3-0.5-0.2 0.4-1.2q0.1-0.3 0-0.5-0.1-0.2-0.4-0.3-0.2 0-0.4 0.1-0.2 0.1-0.3 0.4l-0.4 1.2-0.5-0.1 0.4-1.3q0.1-0.3 0-0.5-0.1-0.2-0.3-0.3-0.3 0-0.5 0.1-0.2 0.1-0.3 0.4l-0.4 1.2-0.4-0.1 0.7-2.2 0.4 0.1v0.3q0.1-0.1 0.3-0.2 0.2 0 0.4 0.1 0.3 0.1 0.4 0.2 0.2 0.2 0.3 0.5 0.1-0.2 0.4-0.3 0.2 0 0.5 0.1 0.2 0 0.4 0.2z"/>
		<path class="s0" d="m58 58.4l-1.7-0.3q0 0.2 0.1 0.4 0.2 0.3 0.4 0.3 0.4 0.1 0.6-0.2l0.5 0.1q-0.1 0.3-0.5 0.5-0.3 0.1-0.7 0-0.3-0.1-0.5-0.3-0.2-0.2-0.3-0.5-0.1-0.3 0-0.6 0-0.4 0.2-0.6 0.2-0.2 0.5-0.3 0.3-0.1 0.6 0 0.4 0 0.6 0.2 0.2 0.2 0.3 0.5 0.1 0.3 0 0.6 0 0.1-0.1 0.2zm-0.4-0.4q0.1-0.3-0.1-0.5-0.1-0.2-0.4-0.2-0.2-0.1-0.4 0-0.2 0.1-0.3 0.4l1.2 0.3z"/>
		<path class="s0" d="m60.4 57.5q0.2 0.2 0.3 0.4 0.1 0.2 0 0.6l-0.2 1.3-0.5-0.1 0.2-1.2q0.1-0.4 0-0.5-0.2-0.2-0.4-0.3-0.3 0-0.5 0.1-0.2 0.2-0.2 0.5l-0.2 1.3-0.5-0.1 0.4-2.3 0.4 0.1v0.2q0.1-0.1 0.3-0.1 0.2-0.1 0.4-0.1 0.3 0.1 0.5 0.2z"/>
		<path class="s0" d="m62 58l-0.1 1.3q0 0.1 0 0.2 0.1 0.1 0.2 0.1h0.3v0.4h-0.4q-0.3-0.1-0.5-0.2-0.2-0.2-0.1-0.5l0.1-1.3h-0.3l0.1-0.4h0.2l0.1-0.6 0.5 0.1-0.1 0.5 0.6 0.1-0.1 0.4-0.5-0.1z"/>
		<path class="s0" d="m63.5 57.7l-0.2 2.3h-0.4l0.1-2.3zm-0.4-0.4q-0.1-0.1-0.1-0.2 0-0.2 0.1-0.2 0.1-0.1 0.2-0.1 0.1 0 0.2 0.1 0.1 0.1 0.1 0.2 0 0.1-0.1 0.2-0.1 0.1-0.2 0.1-0.2 0-0.2-0.1z"/>
		<path class="s0" d="m66.2 59.1h-1.8q0 0.3 0.2 0.4 0.2 0.2 0.5 0.2 0.4 0 0.5-0.3h0.5q-0.1 0.3-0.4 0.5-0.2 0.2-0.6 0.2-0.4 0-0.6-0.1-0.3-0.2-0.4-0.5-0.2-0.2-0.2-0.6 0-0.4 0.2-0.6 0.1-0.3 0.4-0.4 0.3-0.2 0.6-0.2 0.3 0 0.6 0.2 0.2 0.1 0.4 0.4 0.1 0.3 0.1 0.6 0 0.1 0 0.2zm-0.5-0.4q0-0.2-0.2-0.4-0.1-0.2-0.4-0.2-0.3 0-0.5 0.2-0.1 0.1-0.2 0.4h1.3z"/>
		<path class="s0" d="m67.1 57l0.1 3.1h-0.5l-0.1-3.1z"/>
		<path class="s0" d="m67.9 60q-0.1-0.1-0.1-0.2 0-0.2 0-0.3 0.1-0.1 0.3-0.1 0.1 0 0.2 0.1 0.1 0.1 0.1 0.2 0 0.2-0.1 0.2-0.1 0.1-0.2 0.1-0.1 0-0.2 0z"/>
	</g>
</svg>