<svg version="1.2" xmlns="http://www.w3.org/2000/svg" viewBox="0 0 64 50" width="192" height="150"><style></style><path  d="m23.3 12.3c-0.3 0.2-0.6 0.6-0.5 0.7 0 0.2 0.7-0.3 1.2-0.3 0.2 0 0.6 0.1 0.7 0.1 0.2 0 0.3-0.1 0.4-0.2 0.1-0.1 0.1-0.2 0-0.3-0.3-0.3-1.5-0.1-1.8 0z"/><path  d="m18.8 16.7c-0.1 0-0.2 0-0.3 0.1 0 0.1 0 0.3 0.1 0.3q0.2 0.1 0.3 0.2 0 0-0.1 0c0 0.1-0.1 0.2-0.1 0.3 0 0.1 0 0.2 0.1 0.2q0.1 0 0.1 0 0.1 0 0.2-0.1 0-0.1 0.1-0.2 0.1 0.2 0.1 0.5c0 0.1 0.1 0.1 0.2 0.2 0.1 0 0.2-0.1 0.2-0.2 0-0.3-0.1-0.6-0.3-0.8q-0.2-0.3-0.6-0.5z"/><path  d="m26 19.6q0.1 0 0.2 0 0.6-0.1 1.3-0.7c0.1-0.1 0.1-0.2 0-0.3 0-0.1-0.2-0.1-0.2 0q-0.6 0.5-1.2 0.6c-0.4 0-0.8-0.1-1-0.4 0-0.1-0.1-0.2-0.2-0.1-0.1 0.1-0.2 0.2-0.1 0.3 0.2 0.3 0.7 0.6 1.2 0.6z"/><path  d="m23.6 15.9q0.1 0.1 0.1 0.1c0.1 0 0.3-0.1 0.3-0.3 0-0.1 0.2-0.3 0.3-0.3 0.2 0 0.4 0.1 0.4 0.3 0.1 0.1 0.3 0.2 0.4 0.1 0.2-0.1 0.2-0.2 0.2-0.4-0.2-0.4-0.6-0.6-1-0.6-0.4 0.1-0.8 0.4-0.9 0.8 0 0.1 0.1 0.3 0.2 0.3z"/><path  d="m63 6.5c-0.8-4.1-4.4-7-8.1-6.3-1.1 0.2-2.2 0.7-3.1 1.5l-7 3.5c-0.5 0.3-0.9 0.7-1.1 1.2q-0.2 0.3-0.3 0.7l-5.7 2.3q0 0 0 0-0.3 0.2-0.6 0.5l-4.9 2q0 0 0 0-0.4 0.2-0.5 0.5l-1.8 0.6q-0.3-0.1-0.6-0.2-0.3 0-0.7 0.1 0-0.3-0.1-0.4 0-0.2 0-0.4 0.3-0.1 0.5-0.4c0.4-0.5 0.6-1.1 0.6-1.7q0-0.4-0.1-0.7c-0.1-0.6-0.5-1.1-0.9-1.2-0.5-0.2-0.7 0.3-0.8 0.7-0.1 0.2-0.1 0.4-0.3 0.5 0-0.1 0.1-0.4 0.1-0.6 0-0.7 0.1-1.5-0.3-1.8q-0.3-0.1-0.6 0c-0.3 0.1-0.5 0.4-0.7 0.7q-0.1-0.1-0.2-0.2-0.3-0.3-0.7-0.2c-0.6 0-0.8 0.5-0.9 0.9-0.2 0.4-0.3 0.7-0.6 0.7-0.2 0.1-0.4 0-0.7-0.1-0.7-0.1-1.6-0.4-2.7 0.2-1.3 0.8-1.6 2.5-1.7 3.2-0.3-0.1-0.9-0.1-1.4 0.2q-0.8 0.6-0.8 2.2 0.1 1.5 1.2 2.8 0 0.2 0.1 0.5c0.2 0.7 0.9 1.4 1.8 1.4q0.3 0.3 0.7 0.6l1.1 2.6c-0.4 0.3-1.3 1.1-2 1.6l-1.5 0.3h-0.7c-0.9 0.1-2.1 0.4-3.6 1.2-1.2 0.5-4.4 3-7.2 5.6-2.5 2.3-5.4 5.5-5.3 7.5 0.1 3.3 4.1 5.8 4.8 6.2 0 0.2 0 0.5 0.1 0.8q0.3 0.6 0.9 0.9c0.9 0.4 1.6 0.5 1.9 0.6q0 0.1 0 0.1c0.3 0.5 0.7 1.3 1.4 1.5q0.5 0.1 0.9-0.1 0.4-0.2 0.9-0.6c0.5 0.5 1.5 1.2 2.7 1.4q0.3 0.1 0.5 0.1c1.3 0 2.5-0.9 2.8-1.2l1.1 0.7c0.2 0.2 0.5 0.2 0.7 0.1q1.9 0.5 3.7 0.7 1.3 0.1 2.7 0.1 0.3 0 0.7 0 0.5 0 1-0.1 1.7-0.1 3.3-0.4 1.7-0.4 3.3-1 0.7-0.2 1.4-0.5 0.1-0.1 0.1-0.3-0.1-0.4-0.2-0.9c-0.4-2.1-1.6-7.9-1.6-8.2l-0.6-6.4c0.9 0.7 2.3 1.7 3.7 2.5h0.1q2.4 1.3 4.3 1.6 0.3 0 0.6 0c3.4 0 4.2-4.5 4.5-6.5 0.1-0.4 0.2-0.7 0.2-0.8 0.9-1.5 0.9-2.8 1-3.9q0-0.4 0-0.7 0.1-0.4 0.1-0.6 0.1-0.1 0.2-0.2c0.5-0.5 0.8-1.8 1-2.7 0-0.2 0-0.4-0.2-0.6q0 0-0.1-0.1c0.1-0.6 0.5-2.9 0.7-4.5l6.5-0.3q0.3 0 0.5 0 0.6 0 1.1-0.1c3.7-0.7 6.1-4.6 5.4-8.7zm-2.6-2.8c-0.8-0.9-1.7-1.6-2.7-1.9 1 0.3 1.9 1 2.7 1.9zm-28.4 8.9q0.1-0.2 0.3-0.3l4.6-1.8c-0.3 0.8-0.4 1.7-0.2 2.6 0.2 0.9 0.6 1.6 1 2.2l-4.5 0.5c-0.2 0.1-0.5 0-0.6-0.2-0.3-0.3-0.6-0.8-0.7-1.3-0.1-0.6-0.1-1.2 0.1-1.7zm-1 3.5l1.3-0.2c0.2 0.2 0.5 0.3 0.8 0.3q0.1 0 0.1 0l4.9-0.5c0.3 0.2 0.6 0.4 1.1 0.4q0 0 0.1 0l2.5-0.3c0.3 0.5 0.6 0.8 0.7 0.9l0.1 2c-1.2 0.5-1.1 2.5-1.1 3q-0.1 0.1-0.2 0.3c-0.4 0.6-0.7 2.2-1 3.5-0.1 0.7-0.2 1.3-0.3 1.6q0 0.1 0 0.1c-0.5-0.2-1.9-1.2-3.3-2.1-1.5-1-2.9-2-3.4-2.2-0.6-0.3-1.6-0.4-2.2-0.4q-0.1 0-0.1 0.1l-3 0.1-1.2-0.7v-0.1c1.2-0.1 1.9-0.5 2.3-0.8 0.4-0.4 0.6-0.8 0.5-1.2 0-0.4-0.1-1.4-0.3-2.7 0.7-0.1 1.3-0.5 1.7-1.1zm-1.8-2.9l-0.6 0.2q0 0 0 0-0.3 0.2-0.5 0.4c-0.3 0.4-0.4 0.9-0.3 1.3 0.1 0.5 0.4 0.8 0.7 1.1q0.3 0.2 0.7 0.2 0.1 0 0.2-0.1l1.1-0.1c-0.4 0.4-1 0.7-1.6 0.6-0.5 0-0.9-0.3-1.2-0.6-0.3-0.4-0.5-0.9-0.4-1.3 0-0.5 0.3-1 0.6-1.3q0.6-0.4 1.3-0.4zm-8.8 6.3q-0.3-0.2-0.5-0.3 0 0 0-0.1 0 0 0 0 0 0 0 0 0 0 0 0 0-0.1 0-0.1c0-0.1-0.1-0.2-0.2-0.2q0 0 0 0-0.1 0.1-0.1 0.1-0.1 0-0.1 0c-0.8 0-1.3-0.6-1.5-1.2-0.2-0.4-0.2-0.9 0.1-1.2q0.1 0 0.1-0.1 0 0 0 0 0 0 0.1 0 0.5-0.3 0.9-0.2 0.1 0.1 0.1 0.1 0 0 0 0 0.1 0 0.1 0 0 0 0 0 0.1 0.1 0.1 0.1 0 0 0 0 0.1 0 0.1 0 0 0 0 0 0.1 0.1 0.1 0.1 0 0 0 0 0 0.1 0.1 0.1 0 0 0 0 0 0 0 0 0 0.1 0.1 0.1 0 0 0 0 0 0 0 0 0 0 0 0.1 0.1 0 0.1 0 0 0 0 0.1 0 0 0 0 0 0 0.1 0 0 0 0 0 0 0 0 0.1 0 0 0 0 0 0 0 0 0 0.1 0.1 0.2c0.1 0 0.3 0.2 0.6 0.1 0.1 0 0.3-0.1 0.1-1.8 0.6 0 1 0 1.2 0 0.1 1 0.9 1.9 2 2q0.1 0 0.2 0 0.8 0 1.4-0.5c0.5-0.4 0.8-0.9 0.8-1.5 0.1-0.6-0.1-1.1-0.5-1.6-0.3-0.5-0.9-0.7-1.5-0.8-1.2-0.1-2.2 0.8-2.4 2-0.2 0-0.7-0.1-1.3 0q0-0.3-0.1-0.6c0.3-0.4 1.4-1.9 1.5-2.4 0-0.1 0.2-0.4 0.6-0.6 0.6-0.4 1.5-0.7 2-0.5 0.2 0.1 0.6 0.3 0.9 0.4 0.5 0.3 1.1 0.7 1.7 0.8-0.2 0.1-0.4 0.2-0.4 0.3-0.1 0.2-0.1 0.2 0 0.3 0.1 0.1 0.3 0.1 0.5 0 0.1 0 0.4-0.2 0.6-0.3q0 0 0.1 0 0 0.2 0 0.5-0.2 0.1-0.5 0.3c-0.5 0.4-0.7 0.9-0.8 1.5 0 0.6 0.1 1.1 0.5 1.6 0.4 0.5 0.9 0.7 1.5 0.8q0 0 0 0c0.2 1.3 0.3 2.4 0.3 2.7 0 0.3-0.1 0.6-0.4 0.9-0.4 0.3-1.5 0.9-4 0.5-2.1-0.3-3.5-1.1-4.4-1.7q0 0 0-0.1zm0.1-3.9c0.1 0.6 0.1 1.1 0.1 1.3q-0.1 0-0.1 0 0 0 0 0c0-0.1-0.3-0.7-1-1q0.5-0.2 1-0.3zm2-0.5c0.1-1 1-1.7 2-1.6 0.5 0 0.9 0.3 1.2 0.6 0.3 0.4 0.5 0.9 0.4 1.4 0 0.4-0.3 0.9-0.6 1.2-0.4 0.3-0.9 0.4-1.4 0.4-1-0.1-1.7-1-1.6-2zm-1.8 5.2c0.9 0.6 2.2 1.2 4 1.4q0.9 0.2 1.6 0.2 0.1 0 0.1 0v0.2q-0.1 1.1 0.3 2.4v0.3q-0.4 0.5-1.2 0.9-1.1 0.5-2.5-0.2c-0.5-0.8-1-1.8-1.4-3.1q0 0 0 0zm-1.1 28.4c-0.2 0.1-0.3 0.1-0.5 0l-1.2-0.8q-0.1-0.1-0.2 0c-0.1 0-1.6 1.5-3.2 1.2-1.1-0.2-2-0.9-2.4-1.3 0.9-0.9 2-2.1 2.4-3.2q0.4 0.1 0.6-0.1 0.1 0 0.1-0.1c0-0.2 0.3-1 0.6-1.1l-0.2 0.8q0 0.1 0.1 0.2 0.1 0.1 0.2 0c1.1-0.3 2.8-0.8 3.1-0.7 0.3 0.1 1 0.7 1.9 1.6q0.1 0.2 0.1 0.4-0.1 0.1-0.1 0.1l-1.5-1.1c-0.3-0.2-0.6-0.2-0.9-0.1l-1.7 0.5c-0.1 0.1-0.2 0.2-0.1 0.3 0 0.1 0.1 0.1 0.2 0.1l1.7-0.6c0.2 0 0.4 0 0.5 0.1l1.7 1.2 0.3 0.3q0.2 0.1 0.2 0.3 0 0.1 0 0.3-0.1 0.1-0.2 0.1l-2-1.3c-0.2-0.1-0.5-0.2-0.8-0.1-1.4 0.3-1.6 0.3-1.7 0.3 0 0-0.1 0.1-0.1 0.1-0.1 0.1 0 0.3 0.1 0.3 0.1 0 0.1 0 1.8-0.3q0.3-0.1 0.5 0.1l2 1.3c0 0.1 0 0.3-0.2 0.4q-0.1 0.1-0.3 0.2l-0.9-0.6-1-0.6c-0.2-0.2-0.5-0.2-0.7-0.1l-1.5 0.4c-0.1 0.1-0.2 0.2-0.1 0.3 0 0.1 0.1 0.2 0.2 0.1l1.5-0.5q0.2 0 0.4 0.1l0.9 0.7 0.4 0.4c0.1 0.1 0.1 0.2 0 0.4zm4.2-7.8q-0.1 5.9-0.6 8.5-1.7-0.2-3.2-0.6 0.1-0.3 0-0.5l0.2 0.1q0.1 0 0.1 0 0.5 0 0.7-0.3c0.2-0.2 0.3-0.5 0.3-0.6q0.2-0.1 0.3-0.3 0.2-0.3 0.1-0.6c0-0.2-0.2-0.5-0.3-0.6l-0.2-0.1q0.1 0 0.2-0.1c0.1-0.3 0-0.7-0.2-0.9-0.7-0.7-1.6-1.5-2-1.7-0.5-0.1-2.3 0.4-3.1 0.6l0.2-0.7q0-0.1-0.1-0.2 0.1-0.9 0.2-1.4 0-1.1-0.1-3.2 0-0.3 0-0.6c0.4-1.4 0.3-3 1-4.3 0.3-0.6 0.8-1 1.1-1.6l0.1-0.4q0.2-0.1 0.3-0.2c0-0.1 0-0.2-0.1-0.3-0.1 0-0.2 0-0.3 0.1-0.3 0.4-5.6 4-8.1 5.7-0.7 0.5-1.3 0.9-1.6 1.1q0 0-0.1 0.1-1.5-0.5-3-1 0.3 0.3 0.7 0.5 0.6 0.5 1.4 0.6 0.3 0.1 0.7 0.1 0 0.1 0 0.2c0.3 0.4 1.9 2.7 3.6 3.7 0.4 0.3 0.7 0.4 1 0.5 0.6 0.2 1 0.3 1.3 1.1q0.1 0.3-0.1 0.7 0 0.1 0 0.1c-0.5 1.4-2.5 3.4-3.5 3.9q-0.3 0.2-0.6 0.1c-0.6-0.2-1-1-1.1-1.3q0.1-0.1 0.2-0.2 0.1-0.1 0.1-0.3 0.2-1 0.4-1.9c-0.4 0.2-0.5 0.7-0.6 1.1-0.1 0.3-0.2 0.7-0.3 1q0 0-0.1 0 0 0 0 0c-0.1 0-0.9-0.2-1.8-0.6q-0.5-0.3-0.7-0.7-0.1-0.1-0.1-0.2 0.2-0.5 0.4-0.9 0.3-0.7 0.5-1.3c0.1-0.1 0.1-0.2 0-0.3q0 0-0.1 0-0.1 0.1-0.2 0.1c-0.2 0.3-0.3 0.5-0.3 0.8q-0.2 0.5-0.4 0.9c-0.1 0-4.6-2.6-4.7-5.9-0.1-1.5 1.7-4 5.1-7.2 2.8-2.7 5.9-5 7.1-5.6 1.5-0.7 2.7-1 3.5-1.1l0.7-0.1 1.5-0.2 0.6 2.5q0.1 0.1 0.1 0.1 0.1 0 0.2 0l1.1-0.6c0.4 1 1.3 1.4 2 1.8q0.4 0.2 0.7 0.3 0 0 0 0.1 0 0.3 0 0.6c0 2.5 0.1 7.2-0.1 11.6zm-9.2 2.6c-0.3-1-0.9-1.2-1.5-1.4-0.2-0.1-0.5-0.2-0.9-0.4-1.5-0.9-3-3-3.3-3.5q0 0 0.1-0.1c0.3-0.2 0.8-0.6 1.5-1.1 2.1-1.4 3.8-2.5 5.2-3.5q0.1 2.8 0.2 4.8 0.1 2.1 0.1 3.2-0.1 0.5-0.2 1.4-0.1 0-0.2 0c-0.4 0.3-0.7 1-0.8 1.3q0 0.1-0.1 0.1 0.1-0.5-0.1-0.8zm9.5 0.4q0.1-1.3 0.1-3c0.2-4.4 0.1-9.1 0.1-11.6q0-0.8 0-1.3 0-0.5-0.3-1-0.3-0.4-0.6-0.9 0.5 0.2 1 0.2 0.6 0 1.2-0.2 0.6-0.3 1.1-0.7v2.4c0 0 0.5 6.3 1.6 12.5q0.4 1.6 0.7 3.1c-1.7 0.3-3.4 0.5-4.9 0.5zm24.6-23.1c-0.3 1.2-0.6 2.1-0.9 2.5q-0.1 0.1-0.1 0.1-0.2 0-0.2 0.2 0 0 0 0-0.2 0-0.3-0.1-0.5 0-0.9-0.1c-0.2 0-0.3 0.2-0.1 0.3 0.2 0.2 0.4 0.2 0.7 0.3q0.2 0.1 0.5 0.2 0 0 0 0-0.1 0.4-0.1 0.9c0 0.9 0 2.3-0.9 3.6 0 0.1-0.1 0.4-0.2 1-0.3 2-1.2 6.7-4.7 6.1q-1.8-0.2-4.1-1.5h-0.1q-0.2-0.2-0.5-0.3c-0.4-0.4-0.8-0.7-1.2-1-0.4-0.4-0.8-0.8-1-1.3q-0.4-1.2-0.8-2.4-0.3-1.1-0.7-2.1c0-0.2-0.1-0.8-0.4-1v-0.1c0-0.1-0.1-0.2-0.2-0.2-0.1 0-0.2 0.1-0.2 0.3l0.6 5.5 0.7 6.9q0 0 0 0c0 0.1 1.2 6.1 1.6 8.2q0 0.4 0.1 0.8-0.6 0.3-1.2 0.5-1.5 0.6-3 0.9-0.9-2.1-1.7-5.5 0 0 0 0-0.4-1.5-0.7-3.3c-1.1-5.8-1.6-11.7-1.7-12.4 0.6-0.9 1.3-2.1 1.5-2.5 0.2 0.1 0.6 0.4 0.9 0.6 0 0.1 0.1 0.1 0.2 0.1 0.1-0.1 0.1-0.2 0.1-0.3 0 0-0.3-1.7-0.4-1.8 0-0.1 0-0.2-0.8-0.8l2.5-0.1q0.1 0 0.1 0c0.6 0 1.4 0 2 0.3 0.5 0.2 1.9 1.2 3.3 2.1 1.6 1.1 3 2 3.4 2.2q0.1 0 0.2 0 0.3 1.1 0.6 2.1 0-0.8-0.1-1.6 0-0.2 0-0.3-0.1-0.3-0.2-0.4 0-0.1 0-0.1c0.1-0.4 0.3-1 0.4-1.7 0.2-1.2 0.5-2.8 0.9-3.4 0.5 0.3 1.1 0.5 1.7 0.4 0 0.1-0.2-0.1-0.3-0.1q-0.2-0.1-0.3-0.2-0.4-0.2-0.8-0.3 0-0.1-0.1-0.1 0-0.1 0-0.2c0 0-0.1-2.1 0.9-2.6 0.7 1.4 3.3 1.7 5.5 1.3q0.2 0 0.3 0.1 0.2 0.1 0.2 0.3zm-0.3-0.8q-0.1 0-0.2 0c-2.5 0.5-4.7 0-5.2-1.2l-0.1-2.2q0-0.1-0.1-0.1c0 0-0.4-0.3-1-1.4-0.4-0.7-0.4-1.1-0.3-1.2 0.1-0.2 0.2-0.2 0.3-0.3 0.3 0.1 1.4 1 2.4 1.9q0 0.1 0.1 0.1v0.1c0.4 0.2 0.5 0.6 0.5 0.9 0 0.3-0.1 0.6-0.4 0.9-0.1 0.1-0.1 0.2 0 0.3q0.1 0.1 0.2 0.1 0-0.1 0.1-0.1c0.2-0.3 0.5-0.7 0.5-1.1 0.1-0.5-0.1-0.9-0.4-1.2l0.8-0.1q0.6 0.3 1.2 0.3 0.1 0 0.2 0l2.1-0.1c-0.2 1.6-0.6 3.7-0.7 4.4zm-1.5-4.7q-0.6 0-1.2-0.3-0.1-0.1-0.2-0.2 0 0 0 0-0.1 0-0.1-0.1 0 0 0 0-0.1 0-0.1-0.1c-0.9-1-1.5-2.3-1.8-3.7-0.2-1.5-0.1-3.1 0.5-4.3 0.2-0.4 0.5-0.8 1-1l6-3q-0.2 0.3-0.4 0.7c-1.1 1.6-1.4 3.6-1.1 5.6 0.4 2 1.4 3.7 2.9 4.9q1 0.8 2 1.1zm13.6-4.1c-0.7 1.2-1.8 2-3 2.2-2.7 0.5-5.3-1.7-5.8-4.8-0.6-3.1 1.1-6.1 3.7-6.5q0.4-0.1 0.8-0.1c2.3 0 4.5 2.1 5 4.9 0.3 1.5 0.1 3-0.7 4.3zm-1.4 2q0.5-0.3 0.9-0.7-0.4 0.4-0.9 0.7z"/><path  d="m56.1 3.5q-0.1 0-0.2 0c-1.6 0.3-3.1 1.8-4 4.3q-0.1 0.1 0 0.2c1.3 2.3 2.9 3.5 4.5 3.6q0.1 0 0.1 0c1.8 0 3.5-1.6 4.5-4.3q0.1-0.1 0-0.2c-1.4-2.4-3.1-3.7-4.9-3.6zm0.3 7.7c-1.5-0.1-2.9-1.2-4.1-3.3 0.9-2.3 2.2-3.7 3.7-4q0.1 0 0.2 0c1.5-0.1 3.1 1.1 4.4 3.3-1 2.7-2.5 4.1-4.2 4z"/><path  d="m57.9 5.2c-0.6-0.4-1.2-0.6-1.9-0.5-1.4 0.2-2.2 1.7-2 3.3 0.2 0.8 0.6 1.4 1.1 1.9q0.7 0.6 1.5 0.6 0.2 0 0.4-0.1c1.4-0.2 2.3-1.7 2-3.3-0.1-0.7-0.5-1.4-1.1-1.9zm-0.9 4.8c-0.6 0.1-1.1 0-1.6-0.4-0.5-0.4-0.8-1-0.9-1.7-0.3-1.3 0.4-2.6 1.6-2.8q0.1 0 0.3 0c0.4 0 0.9 0.1 1.3 0.4 0.4 0.4 0.8 1 0.9 1.7 0.2 1.4-0.5 2.6-1.6 2.8z"/><path  d="m56.4 5.7c-0.9 0.1-1.4 1.1-1.3 2.1 0.2 1 1.1 1.7 2 1.6 0.8-0.2 1.4-1.1 1.2-2.2-0.2-1-1-1.7-1.9-1.5zm0.8 1.6c-0.2 0.1-0.4-0.1-0.5-0.4 0-0.2 0.1-0.5 0.4-0.5 0.2 0 0.4 0.1 0.4 0.4 0.1 0.3 0 0.5-0.3 0.5z"/></svg>