<svg xmlns="http://www.w3.org/2000/svg" id="Calque_1" data-name="Calque 1" viewBox="0 0 178.68 176.84">
  <defs>
    <style>
      .cls-1 {
        fill: #fff5eb;
      }

      .cls-2 {
        fill: #f39454;
      }
    </style>
  </defs>
  <path class="cls-2" d="M127.65,87.92c0,8.62-2.72,16.58-7.36,23.12-5.3-4.35-9.07-9.41-11.23-15.03-1.94-5.13-2.46-10.45-2.93-15.14-.64-6.62-1.2-12.34-6.15-14-.91-.31-1.89-.41-2.84-.32-2.94.31-5.19,2.37-7,5.49-.64-3.88-2.12-6.94-4.99-8.48-.25-.13-.61-.33-1.16-.49-3.18-.93-6.37,1-9.61,4.74.49-1.17,1-2.38,1.53-3.65l-5.54-2.32c-3.7,8.86-6.58,15.94-8.56,21.05-3.8,9.81-4.94,12.77-1.77,14.22,2.72,1.24,4.35-1.52,5.14-2.85.69-1.17,1.58-2.81,2.61-4.71,7.31-13.49,12.2-20.45,14.53-20.72,2.49,1.36,2.86,8.44,1.15,21.07-.56,4.09-.93,6.79,2.12,7.35,3.05.56,3.64-2.02,4.62-6.31,3.58-15.71,6.29-18.28,7.58-18.42.03,0,.15-.01.32.04,1.27.43,1.72,5.11,2.08,8.9.48,4.81,1.07,10.81,3.3,16.69,2.52,6.62,6.9,12.52,13.01,17.54-7.28,7.59-17.54,12.32-28.9,12.32-22.13,0-40.08-17.94-40.08-40.07s17.95-40.08,40.08-40.08,40.07,17.95,40.07,40.08Z"/>
  <circle class="cls-1" cx="115.99" cy="97.42" r="3.52"/>
  <path class="cls-1" d="M120.29,111.04c-1.13,1.64-2.41,3.18-3.81,4.63-6.11-5.02-10.49-10.92-13.01-17.54-2.24-5.87-2.82-11.88-3.3-16.69-.36-3.78-.81-8.47-2.08-8.9-.17-.05-.29-.04-.32-.04-1.29.13-3.99,2.7-7.58,18.42-.99,4.29-1.57,6.87-4.62,6.31-3.05-.56-2.68-3.26-2.12-7.35,1.72-12.62,1.34-19.71-1.15-21.07-2.33.27-7.22,7.23-14.53,20.72-1.03,1.9-1.92,3.54-2.61,4.71-.79,1.33-2.42,4.09-5.14,2.85-3.17-1.45-2.02-4.41,1.77-14.22,1.98-5.11,4.86-12.2,8.56-21.05l5.54,2.32c-.53,1.27-1.04,2.48-1.53,3.65,3.25-3.74,6.43-5.67,9.61-4.74.55.16.91.36,1.16.49,2.88,1.54,4.35,4.61,4.99,8.48,1.81-3.12,4.06-5.18,7-5.49.95-.09,1.93.01,2.84.32,4.95,1.65,5.51,7.38,6.15,14,.47,4.69.99,10.01,2.93,15.14,2.16,5.62,5.93,10.68,11.23,15.03Z"/>
  <path class="cls-1" d="M87.95,114.31c-1.84,0-3.69-.15-5.53-.46-8.43-1.42-15.88-5.97-20.99-12.82l4.35-3.24c4.27,5.72,10.49,9.53,17.54,10.71,7.04,1.19,14.17-.37,20.08-4.38l3.05,4.49c-5.52,3.75-11.94,5.71-18.5,5.71Z"/>
</svg>
