<svg version="1.2" xmlns="http://www.w3.org/2000/svg" viewBox="0 0 90 82" width="40" height="36">
	<style>
		.s0 { fill: #ffff }
	</style>
	<path class="s0" d="m72.66 60.27q0.01 0.05 0 0.09v0.09q-0.07 0.06-0.16 0.07c-9 0.61-22.66 1.6-23.64 1.88q-0.08 0.05-0.17 0.05h-0.06q-0.12-0.02-0.19-0.13-0.06-0.1-0.04-0.22c0-0.28 0.12-0.55 23.24-2.11-11.29-8.33-11-25.28-10.79-28.75l-8 5.6q-0.1 0.09-0.23 0.07-0.14-0.01-0.21-0.12-0.08-0.11-0.05-0.25 0.03-0.12 0.15-0.19l8.86-6.19c0.11-0.08 0.25-0.08 0.36 0-0.04 0.15 10.07 8.76 10.93 30.11zm-48 7.94q-0.11-0.06-0.23-0.03-0.12 0.03-0.18 0.14c-0.88 1.34-2.12 2.4-3.59 3.05 0.54-1.14 0.73-2.41 0.56-3.66-0.01-0.13-0.11-0.24-0.24-0.26-0.13-0.02-0.26 0.05-0.32 0.16-0.08 0.16-1.95 3.74-5.71 3.12-1.86-0.46-3.82 0.22-5 1.73 0.73-1.35 1.75-2.52 3-3.41q0.14-0.11 0.12-0.28-0.03-0.17-0.19-0.24c-0.16-0.06-1.72-0.56-6 1.75-1.94 1.27-4.52 0.96-6.11-0.73 1.63-0.74 3.03-1.92 4.05-3.39 2.54-3.16 6.18-6.72 6.18-6.76 0.1-0.11 0.1-0.28 0-0.4l-1.1-1.52c1.37 0.21 2.37-0.67 3.75-1.89q1.42-1.3 3-2.4c3.62-2.48 5.62 0.21 5.7 0.32q0.07 0.11 0.19 0.13 0.13 0.01 0.23-0.06 0.1-0.07 0.12-0.19 0.02-0.12-0.05-0.22c0 0-2.41-3.3-6.53-0.48q-1.6 1.13-3.05 2.45c-1.65 1.46-2.48 2.2-4 1.51-0.13-0.05-0.27-0.02-0.36 0.09-0.09 0.11-0.09 0.26 0 0.37l1.56 2c-0.78 0.78-3.83 3.88-6 6.63-2.4 3-4.13 3.3-4.15 3.3q-0.17 0.03-0.24 0.18-0.08 0.15 0 0.29c1.72 2.19 4.81 2.72 7.16 1.24 1.48-0.89 3.12-1.49 4.83-1.74-1.14 1-3.32 3.07-2.58 4.58q0.09 0.17 0.27 0.17 0.19-0.02 0.27-0.2c0 0 1.11-2.9 4.85-2.29 2.28 0.32 4.55-0.71 5.82-2.63 0 1-0.24 2.7-1.51 3.31-0.14 0.07-0.21 0.23-0.15 0.38 0.06 0.15 0.22 0.23 0.37 0.17 0.16 0 3.94-1.28 5.4-3.94 0.05-0.13 0-0.28-0.12-0.35zm24.92-5q0.09 0.09 0.09 0.21 0 0.12-0.09 0.21l-7.77 6.13 3.51 3.24c0.42 0.39 0.67 0.93 0.68 1.5 0.02 0.59-0.21 1.16-0.63 1.58l-4.74 4.71c-0.4 0.4-0.95 0.63-1.52 0.63h-0.11c-0.61-0.03-1.17-0.31-1.56-0.78l-3.61-4.41c-0.12-0.12-0.12-0.3 0-0.42 0.12-0.11 0.3-0.11 0.42 0l3.61 4.41c0.28 0.34 0.68 0.54 1.12 0.56 0.44 0.02 0.87-0.14 1.18-0.45l4.84-4.68c0.3-0.3 0.46-0.72 0.45-1.14-0.01-0.43-0.2-0.83-0.51-1.12l-4.64-4.17c-2.7 3.06-5 5.24-5.28 5.48q-0.09 0.08-0.21 0.08-0.12 0-0.21-0.08l-5.9-5.89q-1.59 0.61-2.9 1.69c1.19 0.75 1.87 2.1 1.77 3.5 0.01 1.64 0.42 3.26 1.19 4.71q0.65-2 1.07-4.06v-0.09l1-1.76q0.06-0.11 0.18-0.14 0.12-0.04 0.23 0.02c0.15 0.08 0.2 0.27 0.12 0.41l-1 1.72q-0.49 2.41-1.31 4.73c-0.23 0.82-0.66 1.56-1.26 2.15q-0.19 0.12-0.42 0.13h-0.15c-1-0.22-2.16-3.24-2.68-5.21-0.38-1.43-1.12-4.87 0.19-6.07 1-0.93 2.16-1.68 3.43-2.21l-0.12-0.12q-0.12-0.13-0.07-0.31 0.18-0.54 0.44-1.06l-3.18 0.24q-0.08 0.02-0.16 0c-0.79-0.5-1.51-2.16-2.13-4.18-0.46 0.58-1.36 1.68-2.86 3.27-1.35 1.45-2.99 2.61-4.81 3.4h-0.1q-0.17-0.01-0.26-0.15-0.07-0.1-0.05-0.23 0.03-0.12 0.14-0.19c0.91-0.98 1.57-2.16 1.92-3.44-0.6 0.19-1.86 0.61-4.39 1.49-4.41 1.53-6 0-6-0.07q-0.11-0.1-0.09-0.25 0.02-0.15 0.15-0.22c1.89-1.13 3.51-2.66 4.76-4.48 0.74-1.38 1.95-2.45 3.42-3l-1.33-1.03c-0.1-0.08-0.13-0.22-0.08-0.34 0.05-0.12 0.18-0.19 0.31-0.18 2.26 0.26 5.11-2.08 5.14-2.11 0.13-0.1 0.32-0.08 0.42 0.04 0.11 0.13 0.09 0.32-0.04 0.43-1.39 1.1-3.03 1.84-4.77 2.16l1.1 1q0.14 0.13 0.09 0.31-0.06 0.17-0.24 0.21c-1.53 0.39-2.83 1.42-3.56 2.82-1.19 1.79-2.74 3.31-4.57 4.44 0.63 0.31 2.17 0.72 5.08-0.29 4.23-1.47 4.93-1.66 5-1.67q0.17-0.03 0.29 0.08 0.11 0.13 0.08 0.29-0.44 1.67-1.33 3.15 1.86-1.07 3.34-2.63 1.65-1.7 3.08-3.58c-0.42-1.48-0.79-3.11-1.09-4.6-0.25-1.21 0.27-2.45 1.31-3.12l6.71-4c0.15-0.09 0.33-0.04 0.41 0.11 0.09 0.14 0.04 0.32-0.1 0.41l-6.71 4c-0.86 0.51-1.31 1.52-1.11 2.5 1 5 2.15 8.32 3.1 9.06l3.45-0.26c2.09-3.84 6.84-9.1 9.79-12.19h-0.06q-4.07-3.78-7.48-8.17c-4-5.12-0.05-10.8 0-10.86q0.07-0.11 0.2-0.13 0.12-0.01 0.22 0.06 0.1 0.07 0.12 0.2 0.02 0.12-0.05 0.22c-0.16 0.22-3.76 5.37 0 10.14q3.4 4.34 7.46 8.07v0.08c1.17-1.23 2-2 2.11-2.15q0.09-0.09 0.21-0.09 0.13 0 0.22 0.09c0.12 0.12 0.12 0.31 0 0.42-0.11 0.11-10.85 10.72-12.84 16l6.15 6.12c2-1.89 17.28-16.91 13.36-23.84-3.45-6.05-4.09-8.26-4.22-9-3.93-1-9.19-3.44-12.42-7h0.01c-1.3-1.26-1.99-3.02-1.9-4.83 0.33-1.92 1.41-3.62 3-4.74 0.12-0.11 0.31-0.11 0.44 0q0.09 0.08 0.09 0.2 0 0.12-0.09 0.2h-0.06c-1.46 1.02-2.45 2.57-2.77 4.31-0.1 1.68 0.54 3.33 1.76 4.49 3.14 3.5 8.42 5.91 12.25 6.87h0.05c1.23 0.38 2.52 0.51 3.8 0.4 2.24-0.41 3.69-1.18 3.75-1.65 0-0.19-0.27-0.44-0.79-0.67-1.4-0.62-2.95-0.82-4.46-0.58-0.16 0.04-0.32-0.06-0.36-0.22-0.04-0.15 0.05-0.31 0.21-0.36 0.7-0.2 1.38-0.56 1.4-0.75 0 0 0-0.1-0.27-0.23-1.22-0.68-2.59 0.61-2.6 0.62-0.12 0.12-0.31 0.12-0.42 0l-7.22-7h-3c-0.17 0-0.3-0.13-0.3-0.3 0-0.17 0.13-0.3 0.3-0.3h3l1.06-1-4.4-5.3c-0.08-0.1-0.08-0.25 0-0.36 1.62-2.13 8-3.49 8.91-3.68l0.67-0.78c-0.36-0.31-2.33-2.09-2.3-4.33q0-1.29 0.65-1.57 0.36-0.14 0.72 0c0-0.63 0.17-1.24 0.49-1.79 0.17-0.42 0.55-0.72 1-0.79q0.42-0.03 0.77 0.21 0.07-0.35 0.24-0.67c0.44-0.61 1.11-1.01 1.85-1.12 0.63-0.17 1.31 0.02 1.76 0.5 1 1.05 0.86 3.33 0.48 4.54-0.07 0.34-0.29 0.63-0.59 0.8 0.22 1.49-0.61 2.93-2 3.49l0.75 1.07c1.77-0.34 5.9-1.28 6.64-2.07q0.11-0.11 0.26-0.09 0.14 0.03 0.22 0.16l2.63 5.22c3.1-1.06 7.89-9.6 10-13.3q0.79-1.44 1.14-2c0.26-0.37 0.36-0.83 0.27-1.28-0.24-0.67-0.7-1.25-1.31-1.62-0.11-0.07-0.16-0.2-0.13-0.33 0 0 0.1-0.41 0.42-2l-0.53 0.6q-0.51 0.61-1.11 1.14c-0.67 0.53-0.48 2.54-0.36 3.2q0.03 0.16-0.08 0.27-1.35 1.45-2.46 3.1c-1.77 2.54-7.1 6.2-7.32 6.36-0.14 0.09-0.33 0.05-0.42-0.08q-0.07-0.1-0.05-0.22 0.03-0.13 0.13-0.2c0 0 5.46-3.75 7.17-6.2q1.08-1.62 2.35-3.09c-0.1-0.65-0.37-2.86 0.6-3.62q0.54-0.5 1-1.07c0.69-0.79 1-1.18 1.4-1 0.4 0.18 0.23 0.64 0.18 0.9-0.22 1.06-0.33 1.61-0.39 1.87 0.67 0.45 1.15 1.11 1.39 1.88 0.14 0.6 0.01 1.24-0.35 1.74-0.22 0.33-0.61 1-1.12 1.94-2.44 4.35-6.9 12.3-10.22 13.55l0.16 0.32q0.08 0.2-0.06 0.36c-0.16 0.14-3.7 3.48-5.92 3.48h-0.14c0.44 3.59 0.06 7.24-1.11 10.66-0.04 0.12-0.15 0.21-0.28 0.21h-0.1q-0.12-0.04-0.17-0.15-0.06-0.11-0.02-0.23c1.55-4.37 1.7-9.13 0.4-13.59-0.06-0.16 0.02-0.33 0.18-0.39 0.16-0.05 0.33 0.02 0.39 0.18q0.43 1.35 0.63 2.75h0.08c1.52 0.15 4.32-2.1 5.48-3.16l-2.79-5.55c-1.43 0.93-5.56 1.78-6.63 2l-0.58 3.23q-0.04 0.16-0.19 0.23h-0.11q-0.11-0.01-0.19-0.07l-3.61-2.95c-1.26 0.27-6.62 1.49-8.23 3.24l4.77 5.71c1.37-0.67 4.24-2.43 4-4q-0.03-0.13 0.04-0.24 0.08-0.11 0.2-0.13 0.14-0.02 0.24 0.06 0.1 0.09 0.11 0.22c0.36 2.49-4.35 4.68-4.55 4.77q-0.07 0.01-0.13 0-0.14 0-0.23-0.11l-0.31-0.37-0.89 0.88 6.89 6.7c0.83-0.77 2.05-0.98 3.09-0.53q0.64 0.36 0.58 0.83-0.07 0.35-0.35 0.56 1.67 0.06 3.2 0.73 1.23 0.55 1.14 1.29c-0.16 1.38-3.81 2.1-4.23 2.17q-0.42 0.08-0.84 0.07-1.4-0.04-2.76-0.37c0.19 0.79 1 3 4.09 8.52 2.78 4.91-3.1 13.21-8 18.85l0.66 0.6 7.84-6.2q0.09-0.13 0.25-0.13 0.15 0 0.25 0.13zm-5.88-47.42c0.13 0.32 0.86 0.58 1.34 0.67q0.15 0.03 0.22 0.17 0.06 0.14 0 0.28l-1 1.59q-0.03 0.01-0.05 0 0.03 0.08 0 0.17l-0.77 0.91 3 2.47 0.56-2.77-1-1.46q-0.07-0.14 0-0.27 0.05-0.15 0.2-0.19c1.33-0.34 2.17-1.65 1.94-3q-0.78-0.27-1.37-0.84-0.39-0.34-0.84-0.59c-0.12-0.05-0.16 0-0.18 0-0.24 0.16-0.36 0.91-0.37 1.37q-0.01 0.15-0.12 0.24-0.14 0.06-0.27 0c0 0-0.46-0.07-1.09 0.82-0.26 0.27-0.21 0.39-0.2 0.43zm-18.4 55.12l-0.12 0.1c-0.73 0.66-0.73 2.76 0 5.46 0.73 2.7 1.82 4.69 2.22 4.79q0.06 0.01 0.12 0 0.71-0.72 1-1.7c-0.97-1.7-1.49-3.61-1.52-5.56 0.1-1.28-0.57-2.49-1.7-3.09zm57-50l-0.09 0.28-0.09 0.29c4 1.2 8.08 2.45 7.16 7.44-1.43 7.7-13.38 15.93-13.88 16.28-0.39 0.26-0.92 0.17-1.2-0.2q-0.2-0.29-0.13-0.64 0.06-0.35 0.36-0.55c0.11-0.08 11.85-8.14 13.15-15.18 0.61-3.32-1.62-4.16-6-5.48-3.14-0.95-6.71-2-9.21-4.87-1.05-1.16-1.5-2.74-1.21-4.28 0.68-4.24 6.28-8.71 9.56-11 0.11-0.07 0.15-0.21 0.11-0.33-0.03-0.13-0.15-0.21-0.28-0.21h-0.37c-0.48 0-0.86-0.39-0.86-0.86 0-0.48 0.38-0.86 0.86-0.86h4c0.47 0 0.85 0.39 0.86 0.86v4c0 0.47-0.39 0.86-0.86 0.86-0.48 0-0.86-0.39-0.86-0.86v-1.72q-0.01-0.18-0.16-0.26-0.15-0.09-0.3 0c-2.17 1.43-9.31 6.42-10 10.64-0.2 1.03 0.11 2.09 0.84 2.85 2.16 2.47 5.48 3.47 8.4 4.36l0.1-0.29 0.08-0.29c-2.86-0.86-6.08-1.84-8.13-4.18-0.6-0.63-0.86-1.5-0.7-2.35 0.49-3.05 5-7.06 9.26-9.92v1.14c0 0.81 0.65 1.46 1.46 1.46 0.8 0 1.46-0.65 1.46-1.46v-4c0-0.39-0.16-0.76-0.43-1.03-0.27-0.28-0.64-0.43-1.03-0.43h-4c-0.77-0.07-1.46 0.47-1.59 1.23-0.11 0.76 0.38 1.49 1.14 1.65-3.4 2.45-8.48 6.75-9.15 10.92-0.29 1.71 0.24 3.46 1.43 4.73 2.61 3 6.26 4.07 9.49 5.05 4.79 1.45 6 2.21 5.55 4.79-1.23 6.69-12.78 14.71-12.9 14.79-0.57 0.34-0.85 1.02-0.67 1.66 0.18 0.64 0.77 1.07 1.44 1.06q0.45 0 0.82-0.26c0.52-0.4 12.66-8.74 14.13-16.74 1.02-5.49-3.75-6.93-7.57-8.09zm-52.12 34c-0.09-0.14-0.26-0.2-0.41-0.12l-5.14 2.71q-0.11 0.06-0.15 0.17-0.04 0.12 0.02 0.23 0.08 0.16 0.27 0.16h0.14l5.09-2.76q0.12-0.05 0.17-0.17 0.05-0.12 0-0.24zm-3.73 6q0.07 0.02 0.15 0l4.82-2.91q0.1-0.06 0.14-0.18 0.03-0.12-0.03-0.23c-0.09-0.14-0.27-0.19-0.41-0.11l-4.83 2.88q-0.1 0.06-0.14 0.18-0.03 0.12 0.03 0.23 0.09 0.14 0.26 0.15zm56.78-48.61q-0.12-0.03-0.23 0.03-0.1 0.06-0.14 0.18c-0.04 0.16 0.06 0.33 0.22 0.37q1.45 0.49 2.56 1.54-1.07 1.12-1.86 2.45-0.06 0.11-0.03 0.23 0.03 0.12 0.14 0.18 0.08 0.02 0.15 0 0.17-0.01 0.26-0.15 0.76-1.27 1.79-2.33 1.37 1.42 2.2 3.2 0.09 0.17 0.27 0.17 0.07 0.02 0.13 0c0.15-0.07 0.21-0.25 0.14-0.4q-0.9-1.81-2.31-3.27c0.89-0.88 2.01-1.48 3.23-1.75 0.16-0.03 0.27-0.18 0.25-0.34q-0.02-0.12-0.12-0.2-0.1-0.07-0.23-0.05c-1.34 0.26-2.58 0.9-3.57 1.84-0.81-0.77-1.78-1.35-2.85-1.7zm-10.45 19.82c-1.61 0-3.08-0.97-3.69-2.47-0.62-1.49-0.28-3.21 0.86-4.36 1.15-1.14 2.87-1.48 4.36-0.86 1.5 0.61 2.47 2.08 2.47 3.69 0 1.06-0.42 2.08-1.17 2.83-0.75 0.75-1.77 1.17-2.83 1.17zm3.38-4c0-1.36-0.82-2.6-2.08-3.12-1.27-0.53-2.72-0.24-3.69 0.73-0.97 0.97-1.26 2.42-0.73 3.69 0.52 1.26 1.76 2.08 3.12 2.08 1.86 0 3.37-1.5 3.38-3.36z"/>
</svg>
