<svg version="1.2" xmlns="http://www.w3.org/2000/svg" viewBox="0 0 96 96" width="96" height="96">
	<title>noun-space-tourism-7840754</title>
	<style>
		.s0 { fill: #000000 } 
	</style>
	<path class="s0" d="m69.9 58.2l-0.1-2.1c14.7-21.7 8.2-37 7.9-37.8-0.1-0.3-0.3-0.4-0.5-0.5-0.8-0.4-16.2-6.9-37.9 7.9l-2-0.1c-8.1-0.4-16 2.7-21.7 8.4q-0.3 0.3-0.3 0.7 0 0.4 0.3 0.6l6.1 6.1q-2.4 2.7-4.9 5.7c-1.4 1.5-1.2 4.1 0.7 7.6q-1.3 1.5-2.6 3.1c-1.2 1.3-0.8 3.3 0.3 5.5-11.6 4.5-13.4 15.6-13.5 16.1-0.1 0.3 0 0.6 0.3 0.8 0.2 0.2 0.5 0.3 0.8 0.3l3.8-0.6c-8.2 10.5-6 13.8-5.5 14.4q0.2 0.2 0.5 0.3c3.1 0.7 10.4-3 13.6-4.8v4c0 0.3 0.2 0.6 0.4 0.8q0.3 0.1 0.6 0.1 0.2 0 0.3-0.1c9.1-3.9 13.5-10.9 15.2-14.6 1.4 0.8 2.8 1.3 3.9 1.3 0.8 0 1.5-0.3 2-0.8q1.6-1.3 3.1-2.5 3 1.5 5 1.5 1.6 0 2.6-0.9 3-2.5 5.7-4.9l6.1 6.1q0.3 0.3 0.7 0.3 0.4 0 0.6-0.3c5.8-5.7 8.8-13.6 8.5-21.6zm-2.6-40.1c4.7 0 7.7 0.9 8.7 1.3 0.6 1.5 2.4 7.8 0.3 17.1l-17.4-17.4c3.2-0.7 6-1 8.4-1zm-49.6 16.6c5.1-4.8 12-7.4 19-7.2-4.3 3.2-8.9 7.3-13.7 12.5zm-1.4 24.4h0.1q1-1.3 2.1-2.5c1.4 2.3 3.4 4.8 5.7 7.4-1.2 1.4-2.3 2.8-3.2 4.2-4.1-4.8-5.5-8.2-4.7-9.1zm30.8 18.1q-0.1 0-0.1 0-0.7 0.7-2.6 0.2c-3-0.8-7.2-3.7-11.5-7.4q0.1-0.1 0.2-0.1c4.7-4.7 8.2-10.8 5.7-13.2-0.8-0.8-2.4-1.4-5.8 0.2-2.3 1.2-4.9 3.1-7.4 5.5q0 0.1-0.1 0.2c-3.7-4.3-6.6-8.5-7.4-11.5q-0.5-1.8 0.2-2.6l0.1-0.1c14.7-18.3 28.1-25.9 38.3-28.7l19.1 19c-2.8 10.3-10.4 23.7-28.7 38.5zm-29.9 15.1v-4.1c0-0.3-0.2-0.7-0.5-0.8-0.3-0.2-0.7-0.2-1 0-3.8 2.2-10.5 5.5-13.2 5.4-0.2-0.9-0.3-4.5 7.2-13.6 0.3-0.3 0.3-0.7 0.1-1.1-0.2-0.3-0.6-0.5-1-0.5l-4.9 0.8c0.9-3 3.8-10.1 12.3-13.3q0.6 0.8 1.2 1.7c-5.3 3-6.2 8.4-6.2 8.7 0 0.2 0 0.5 0.2 0.7 0.2 0.3 0.5 0.4 0.8 0.4l1.8-0.1c-3.8 5-3.8 7-3 7.8q0.2 0.2 0.4 0.3c1.8 0.4 5.2-1.5 7.2-2.8l0.3 2q0.1 0.5 0.5 0.8 0.2 0.1 0.5 0.1 0.2 0 0.3-0.1c4.2-1.8 6.7-4.8 8-6.9q0.9 0.7 1.9 1.3c-1.5 3.3-5.2 9.5-12.9 13.3zm-0.2-17.3c-0.2-0.3-0.5-0.5-0.9-0.5l-2.7 0.1c0.5-1.6 1.9-4.5 5.2-6.2q0.7 0.8 1.4 1.6c-1.1 2.3-1.3 4.4-0.1 5.6 0.4 0.4 1.1 0.8 2.1 0.8 0.9 0 2-0.3 3.4-0.9q0.6 0.5 1.3 1c-1.1 1.7-2.9 4.1-6.1 5.8l-0.3-2.3c0-0.4-0.3-0.7-0.6-0.8-0.3-0.1-0.6-0.1-0.9 0.1-2.1 1.5-4.8 3-6.2 3.4 0.2-0.9 1.1-2.8 4.3-6.6 0.2-0.3 0.3-0.7 0.1-1.1zm10.7-7.2q1.2 1.1 2.3 2.2c-1.7 1.6-3.5 2.8-5.1 3.6-2 1-3.2 1-3.6 0.6-0.5-0.5-0.3-1.9 0.7-3.9q0.1 0 0.1 0c0.7-1.4 1.8-3.1 3.4-4.9q1 1.2 2.2 2.4zm8.7 11.3q0 0 0 0.1c-0.9 0.8-4.3-0.6-9.1-4.7 1.4-0.8 2.8-1.9 4.2-3.2 2.6 2.3 5.1 4.3 7.4 5.7q-1.2 1-2.5 2.1zm-4.7-10.6q-0.1 0.1-0.2 0.2c-1.6-1.5-3.2-3.1-4.7-4.7l0.2-0.2c2.3-2.3 4.7-4.1 6.8-5.2 1.3-0.6 2.2-0.8 2.8-0.8q0.6 0 0.8 0.2c1 1-0.8 5.5-5.7 10.5zm29.1 9.3l-5.3-5.3c5.1-4.8 9.2-9.4 12.5-13.8 0.2 7.1-2.4 14-7.2 19.1z"/>
	<path class="s0" d="m61.3 34.2c-4.8-4.8-12.6-4.8-17.4 0-4.8 4.8-4.8 12.6 0 17.4 2.4 2.4 5.5 3.6 8.7 3.6 3.1 0 6.3-1.2 8.7-3.6 4.8-4.8 4.8-12.6 0-17.4zm-16.1 16c-4-4.1-4-10.6 0-14.7 2.1-2 4.7-3 7.4-3 2.6 0 5.3 1 7.3 3 4 4.1 4 10.7 0 14.7-4.1 4-10.6 4-14.7 0z"/>
	<path class="s0" d="m47.7 38c-1.3 1.3-2 3-2 4.9 0 1.8 0.7 3.5 2 4.8 1.3 1.3 3 2 4.9 2 1.8 0 3.5-0.7 4.8-2 1.3-1.3 2.1-3 2.1-4.8 0-1.9-0.8-3.6-2.1-4.9-2.7-2.7-7-2.7-9.7 0zm8.3 8.4c-0.9 0.9-2.1 1.4-3.4 1.4-1.4 0-2.6-0.5-3.5-1.5-1-0.9-1.5-2.1-1.5-3.4 0-1.4 0.5-2.6 1.5-3.5 1.9-1.9 5-2 6.9 0 1 0.9 1.5 2.1 1.5 3.5 0 1.3-0.5 2.5-1.5 3.5z"/>
	<path class="s0" d="m1.2 12.9c0 6.5 5.2 11.8 11.7 11.8 1.7 0 3.3-0.4 4.7-1 1.8 1 3.5 1.6 4.9 1.6 0.8 0 1.6-0.2 2.1-0.8 1.3-1.2 1-3.6-0.8-7 0.6-1.4 0.9-3 0.9-4.6 0-6.5-5.3-11.8-11.8-11.8-1.6 0-3.2 0.4-4.6 1-3.3-1.8-5.7-2.1-7-0.9-1.4 1.4-0.8 4 0.8 7-0.6 1.5-0.9 3-0.9 4.7zm11.7 9.8c-5.4 0-9.8-4.4-9.8-9.8q0-1.3 0.3-2.5c1.5 2.2 3.4 4.4 5.5 6.5 2.1 2.1 4.4 4 6.5 5.5q-1.2 0.3-2.5 0.3zm10.3 0.5c-0.5 0.5-1.8 0.3-3.6-0.6 1.2-0.8 2.2-1.8 3-3 0.9 1.9 1 3.2 0.6 3.6zm-0.4-10.3c0 3.7-2.1 6.9-5.1 8.6-2.2-1.3-4.7-3.3-7.4-5.9-2.7-2.7-4.7-5.3-6-7.4 1.7-3.1 4.9-5.1 8.6-5.1 5.5 0 9.9 4.4 9.9 9.8zm-20.1-10.3c0.3-0.4 1.6-0.3 3.5 0.6-1.1 0.8-2.2 1.8-3 3-0.8-1.8-1-3.1-0.5-3.6z"/>
	<path class="s0" d="m82.9 77.6c0-1.8-1.4-3.2-3.2-3.2-1.8 0-3.2 1.4-3.2 3.2 0 1.7 1.4 3.2 3.2 3.2 1.8 0 3.2-1.5 3.2-3.2zm-3.2 1.2c-0.7 0-1.2-0.5-1.2-1.2 0-0.7 0.5-1.3 1.2-1.3 0.7 0 1.3 0.6 1.3 1.3 0 0.7-0.6 1.2-1.3 1.2z"/>
	<path class="s0" d="m93.3 89.8q0.4-0.5 0.7-1.1 0.1-0.2 0.2-0.4 0.2-0.5 0.4-1 0.1-0.2 0.2-0.4 0.2-0.5 0.3-1 0-0.1 0.1-0.2 0.4-1.6 0.4-3.3c0-7.2-5.9-13.1-13.1-13.1-7.3 0-13.2 5.9-13.2 13.1 0 7.3 5.9 13.1 13.2 13.1 3.8 0 7.3-1.6 9.7-4.3q0 0 0 0 0.1-0.2 0.2-0.3 0.3-0.3 0.5-0.6 0.2-0.2 0.4-0.5zm-22-7.4c0-6.2 5-11.2 11.1-11.2 6.2 0 11.2 5 11.2 11.2q0 0.9-0.1 1.7c-0.9-0.3-1.8-0.2-2.7 0.2-0.9 0.5-1.6 1.2-2 2.2-0.5 1.5 0 3.2 1.1 4.2-1.9 1.8-4.6 2.9-7.5 2.9-6.1 0-11.1-5-11.1-11.2zm21.4 4.4q-0.4 1-1 1.8 0 0.1 0 0.1-0.2 0.3-0.4 0.6c-0.7-0.5-0.9-1.4-0.6-2.1 0.1-0.5 0.5-0.9 0.9-1.1q0.4-0.2 0.8-0.2 0.3 0 0.6 0.1-0.1 0.2-0.2 0.5 0 0.1-0.1 0.3z"/>
	<path class="s0" d="m87.3 79c-0.5 0-0.9 0.3-0.9 0.8 0 0.5 0.4 0.8 0.9 0.8 0.4 0 0.8-0.3 0.8-0.8 0-0.5-0.4-0.8-0.8-0.8z"/>
	<path class="s0" d="m82.4 87.4c-0.6 0-1.1 0.5-1.1 1.1 0 0.7 0.5 1.1 1.1 1.1 0.6 0 1.1-0.5 1.1-1.1 0-0.6-0.4-1.1-1.1-1.1z"/>
	<path class="s0" d="m75.9 83.5c-0.5 0-0.8 0.4-0.8 0.9 0 0.4 0.3 0.8 0.8 0.8 0.4 0 0.8-0.4 0.8-0.8 0-0.5-0.4-0.9-0.8-0.9z"/>
	<path class="s0" d="m14.3 7.8c0.6 0 1.1-0.5 1.1-1.1 0-0.6-0.5-1.1-1.1-1.1-0.6 0-1.1 0.5-1.1 1.1 0 0.6 0.5 1.1 1.1 1.1z"/>
	<path class="s0" d="m16.9 11.4c0.6 0 1.1-0.5 1.1-1.1 0-0.6-0.5-1.1-1.1-1.1-0.6 0-1.1 0.5-1.1 1.1 0 0.6 0.5 1.1 1.1 1.1z"/>
	<path class="s0" d="m12 11.4c0.6 0 1.1-0.5 1.1-1.1 0-0.6-0.5-1.1-1.1-1.1-0.6 0-1.1 0.5-1.1 1.1 0 0.6 0.5 1.1 1.1 1.1z"/>
</svg>